<svg id="Capa_1" data-name="Capa 1" xmlns="http://www.w3.org/2000/svg" viewBox="0 0 446.98 359.98"><defs><style>.cls-1{fill:#2484c6;}.cls-2{fill:#fff;}.cls-3{fill:none;}.cls-4{fill:#231f20;}.cls-5{fill:#a8996e;}.cls-6{fill:#ef4130;}.cls-7{fill:#00b6f1;}.cls-8{fill:#e6e7e8;}</style></defs><title>Artboard 1</title><path class="cls-1" d="M435.17,267.38c.11,2.22,5.18,82.5,3,83-5.93,1.32-127.66,2.41-133.32,3-6.88.68-225.11-1.7-225.11-1.7l-71.66-1S7,267.22,7,264.91c.15-4.23,77.82-.49,86.26-1.67,6.79-1,169.45.4,169.45.4l104.51,1.76,67.9,2Z"/><path class="cls-2" d="M331.74,308.19a25,25,0,0,0,39.6,20.07,1.35,1.35,0,0,0,.56-1.09v-6.3a1.35,1.35,0,0,0-2.3-1,18.55,18.55,0,0,1-12.87,5.67c-9.32,0-17.2-8-17.2-17.57s7.82-17.56,17.08-17.56a18.24,18.24,0,0,1,13,5.65,1.35,1.35,0,0,0,2.31-.94v-6.3a1.35,1.35,0,0,0-.54-1.08A23.32,23.32,0,0,0,356.91,283a25.2,25.2,0,0,0-25.17,25.17Z"/><path class="cls-2" d="M395,282.43l-21.09,47.89a1.35,1.35,0,0,0,1.23,1.89h5.57a1.35,1.35,0,0,0,1.24-.82l5.17-12.15h17.73l5,12.14a1.35,1.35,0,0,0,1.24.83h5.64a1.35,1.35,0,0,0,1.24-1.88L397.5,282.44a1.35,1.35,0,0,0-2.47,0Z"/><path class="cls-2" d="M159.23,283.81a1.35,1.35,0,0,0-1.35,1.35v4.73a1.35,1.35,0,0,0,1.35,1.35h9.69v39.63a1.35,1.35,0,0,0,1.35,1.35h5.09a1.35,1.35,0,0,0,1.35-1.35V291.23h9.81a1.35,1.35,0,0,0,1.35-1.35v-4.73a1.35,1.35,0,0,0-1.35-1.35Z"/><path class="cls-2" d="M193.81,284a1.35,1.35,0,0,0-1.35,1.35V331a1.35,1.35,0,0,0,1.35,1.35h23.7a1.35,1.35,0,0,0,1.35-1.35v-4.73a1.35,1.35,0,0,0-1.35-1.35H200.25V309.69H217a1.35,1.35,0,0,0,1.35-1.35v-4.73a1.35,1.35,0,0,0-1.35-1.35H200.25V291.38h17.26a1.35,1.35,0,0,0,1.35-1.35V285.3a1.35,1.35,0,0,0-1.35-1.35Z"/><path class="cls-2" d="M207.9,271.68l-5.74,7a1.35,1.35,0,0,0,.31,2l2.17,1.4a1.35,1.35,0,0,0,1.62-.12l7.73-6.77a1.35,1.35,0,0,0-.38-2.26l-4.16-1.68a1.35,1.35,0,0,0-1.55.4Z"/><path class="cls-2" d="M37,283.81a1.35,1.35,0,0,0-1.35,1.35v45.7A1.35,1.35,0,0,0,37,332.21h5.09a1.35,1.35,0,0,0,1.35-1.35V312.2h2.35c3.56,0,8.12-.38,11.71-3.34A14.15,14.15,0,0,0,62.4,298a13.94,13.94,0,0,0-5.73-11.53c-3.57-2.46-7.76-2.67-12.1-2.67Z"/><path class="cls-2" d="M65.64,308.07a25.17,25.17,0,1,0,25.17-25,25.08,25.08,0,0,0-25.17,25Z"/><path class="cls-2" d="M121.8,283.81a1.35,1.35,0,0,0-1.35,1.35v45.7a1.35,1.35,0,0,0,1.35,1.35h17.7a1.35,1.35,0,0,0,1.35-1.35v-4.73a1.35,1.35,0,0,0-1.35-1.35H128.23V285.15a1.35,1.35,0,0,0-1.35-1.35Z"/><path class="cls-2" d="M147.2,283.81a1.35,1.35,0,0,0-1.35,1.35v45.7a1.35,1.35,0,0,0,1.35,1.35h5.09a1.35,1.35,0,0,0,1.35-1.35v-45.7a1.35,1.35,0,0,0-1.35-1.35Z"/><path class="cls-2" d="M221.52,308.19a25,25,0,0,0,39.6,20.07,1.35,1.35,0,0,0,.56-1.09v-6.3a1.35,1.35,0,0,0-2.3-1,18.55,18.55,0,0,1-12.87,5.67c-9.32,0-17.2-8-17.2-17.57s7.82-17.56,17.08-17.56a18.24,18.24,0,0,1,13,5.65,1.35,1.35,0,0,0,2.31-.94v-6.3a1.35,1.35,0,0,0-.54-1.08A23.33,23.33,0,0,0,246.69,283a25.2,25.2,0,0,0-25.17,25.17Z"/><path class="cls-2" d="M268.61,282a1.35,1.35,0,0,0-.85,1.25v47.64a1.35,1.35,0,0,0,1.35,1.35h5.09a1.35,1.35,0,0,0,1.35-1.35V299l33.32,34.85a1.35,1.35,0,0,0,2.32-.93V285.15a1.35,1.35,0,0,0-1.35-1.35h-5.09a1.35,1.35,0,0,0-1.35,1.35v32l-33.32-34.91a1.34,1.34,0,0,0-1.48-.32Z"/><path class="cls-2" d="M320.19,283.81a1.35,1.35,0,0,0-1.35,1.35v45.7a1.35,1.35,0,0,0,1.35,1.35h5.09a1.35,1.35,0,0,0,1.35-1.35v-45.7a1.35,1.35,0,0,0-1.35-1.35Z"/><polygon class="cls-1" points="396.12 298.32 401.76 311.81 390.36 311.81 396.12 298.32 396.12 298.32"/><path class="cls-1" d="M44,291.23c7,0,10.59,1,10.59,6.65,0,4.77-2.8,6.9-9.08,6.9h-2V291.23Z"/><path class="cls-1" d="M73.42,308a17.39,17.39,0,1,1,17.38,17.57A17.49,17.49,0,0,1,73.42,308Z"/><path class="cls-3" d="M221.16,11.91c63.52,0,105.6,49.12,105.6,115.74,0,63.77-38.37,116.13-105.23,116.13-62.41,0-104.31-52.53-104.31-116.31S160.59,11.91,221.16,11.91Z"/><path class="cls-4" d="M183.6,64.35a2,2,0,0,1,2-1.48,2.41,2.41,0,0,1,1.67.65,2.54,2.54,0,0,1,2.56-1.84l.46.37c-.45.11-.83,1.29-.14,3.54a3.08,3.08,0,0,1,.08,1.44,14.86,14.86,0,0,1,1.17-1.72c.37-.37.74-.64.78-1.1s0-.87.32-1,.83.18,1.2.74.32.87.83,1.33a8.94,8.94,0,0,0,2.49,1.1c-.74.78-1.24,1.29-1.06,1.93s.92.87.74,1.75-.92.51-1.2.37-.46-.46-.87-.28a1.11,1.11,0,0,0-.46,1.38c.28.41,1.94.18,2.3,0s1.52-.41,1.24-1.75a1.68,1.68,0,0,1-.14-2,2.14,2.14,0,0,1,2.21-.74c.51.23,1-.09.6-.51a7.41,7.41,0,0,0-1.7-1c-.28-.14-.74-.32-.74-.32a6.46,6.46,0,0,1,.74-2.07c.6-1.06,1-1,.92-1.93a1.83,1.83,0,0,1,1.57-1.89c-.32.69.28,1.33,1.15,1.84-.92-2.81-1.24-3.17-3.18-3.13a2.28,2.28,0,0,1,3.27-1.56,5.58,5.58,0,0,1,1.38-2.44s1.61.55,1.89,1.43c1.15-.83,3.41-.51,3.78.64-.78-.18-1.93.46-1.89,2.71.09-.18,1.15-.74,1-1.61,1,.46,1.29.18,1.61,2.3.6-.14,2.49.92,2.53,1.56.37.23,1-.83,1.47-1.24a6,6,0,0,1,1.29-.78s-.28-2.35,1.06-2.76c.55.69,1,1.43,1.34,1.52,0-1.7-.46-3-1.75-3.13,0-1.15.65-1.43,1.34-1.43a8.46,8.46,0,0,1,1.93.41s-.14-1.1,1.43-2.07a3.52,3.52,0,0,1,1.57,2c.55-.41,3.32-.55,3.78.14-.92.18-1.47,1.56-1.7,2.12s-.23,1.47,0,1.43a3.68,3.68,0,0,0,1.24-.92A2.34,2.34,0,0,1,227.19,59c.83-.09,1.8,2.58,1.8,2.58a11.4,11.4,0,0,1-1.43,2.16c.14,1.66.51,1.89.74,1.79s.6-.69.37-1c.41-.14,1-.23,1.24.09s.14.74.69.64a1,1,0,0,0,.55-1.56c-.41-.6-1.71-1.93-1.38-2.58a3.94,3.94,0,0,1,2.3-1.56c-.41-1,1-2.35,1.8-2.44A3.71,3.71,0,0,0,235,59.56c.23-1.52.18-1.79-.14-2.35s-.46-.87,0-1.15a2.27,2.27,0,0,1,1.57-.46,2.72,2.72,0,0,1,1.24.87,9.56,9.56,0,0,0,2.58-2,20.61,20.61,0,0,0,.87,2.94c.32.46,2.3.51,2.72,1.24-.32.41-2.3,2.07-2.44,2.39s0,.41.28.51a3.28,3.28,0,0,0,2.07-1.2,4,4,0,0,1-.18,2.44c-.18.28,1,2.3.69,3.13-.42,0-.88,0-.83.23s.92.37,1.38,1.2a3,3,0,0,1,.55,2.35c-.28.6-.74.46-.74.46a1.52,1.52,0,0,0,1,1.52,8,8,0,0,0,2.4.14s.23-1.2-.41-1.38a4.07,4.07,0,0,0-1.57,0s0-1.89,1.15-2.25c-.87-.69-1.34-2.81-1.34-2.81a3.71,3.71,0,0,1,3.5-.92c0-.69,1.11-1.84,1.11-1.84a7.05,7.05,0,0,0,.74,1.2c.28.28,1.15,1,1.24,1.38.46-.64,1.43-2.16.65-3.17,1.29.09,1.93,0,2.58,1.52,2.21-.64,3.36-1,4.56,1.66-1.29.14-2-.28-2.81,1.52a4.46,4.46,0,0,1-2.12,2.3s.37,1.61-.6,2.35-2.07.78-2.67,1.38A3.35,3.35,0,0,0,250.92,75c-.23,1.29-.23,2.58-1.2,3a5.34,5.34,0,0,1,.69,2.35c0,.64-1.34,1-1.52,1.24s-.18.46.09,1a15.25,15.25,0,0,1,.57,3.45h9.2a1.84,1.84,0,0,1,1.84,1.84V165c-.6,7.71-6.41,10.82-13.17,10.82l-15.85.09c-4,0-8.11,4.46-9.49,7-3.41-4.81-5.65-6.83-11.33-7.09-2-.09-5.87,0-15.25,0-5.68,0-11.91-4.08-12.45-10.95a1.87,1.87,0,0,1,0-.37V87.9a1.84,1.84,0,0,1,1.84-1.84h8.35a1.55,1.55,0,0,1-.1-.55,5.23,5.23,0,0,1,.51-2.25,8.15,8.15,0,0,1,.78-.92,4.85,4.85,0,0,1-1.06-1.47,3.48,3.48,0,0,1,0-1.84c0-.37-.09-.78-.69-1.33a1.83,1.83,0,0,1-.55-2c.28-.51.69-.83.23-1.24s-1.66-1.79-1.66-1.79a4.63,4.63,0,0,1-1.47,0c-.69-.14-1.38-1.24-1.47-2a2,2,0,0,1,.32-1.08c-1.95.22-2.5-3.64-3.48-4.36a1.58,1.58,0,0,0-1.08-.24,6,6,0,0,1,.13-.62Z"/><path class="cls-5" d="M221.16,11.91c63.52,0,105.6,49.12,105.6,115.74,0,63.77-38.37,116.13-105.23,116.13-62.41,0-104.31-52.53-104.31-116.31S160.59,11.91,221.16,11.91Zm1.48,4.39c-59.42,0-100.8,50.59-100.8,112.08s39.63,111,100.44,111c60.06,0,99.22-50.44,99.22-111.94S283,16.31,222.63,16.31Z"/><path class="cls-5" d="M222.12,41.44C177,41.44,148,80.91,148,128.21c0,48.81,28.78,86.5,73.9,86.5s75.19-37,75.19-85.95c0-48-28.6-87.32-75-87.32Zm.45-4.24c45.7,0,78.94,38.37,78.94,91,0,51.53-31.67,90.27-79.22,90.27-49.78,0-79.26-39.88-79.26-89.72,0-53.56,32.5-91.56,79.55-91.56Z"/><path class="cls-5" d="M242.77,58.73a2.81,2.81,0,0,0-1.43-.14c-.51.18-.42,1.15-.42,1.15a3.65,3.65,0,0,0,.92-.32c.28-.18.92-.69.92-.69Z"/><path class="cls-5" d="M258.48,64.48a1.27,1.27,0,0,0-.92-.6,11.65,11.65,0,0,0-2.49,1s-.28-1.06-.69-1.33c0,.64-1,1.33-1,2.35a2.61,2.61,0,0,0,1.43,2.35c1.15-.55,1.15-2,1.89-2.85a2.48,2.48,0,0,1,1.75-.87Z"/><path class="cls-5" d="M250.41,64.07a9.36,9.36,0,0,0-.55,1.61c-.69-1-2.67-.46-3,.23.42,1.38,1.38,1.84,2.07,1.7a5.38,5.38,0,0,0-.55-1.15c2.72.55,3.22,1.93,3.78,2.25a22.25,22.25,0,0,0-.51-3.45c-.18-.6-1.2-1.2-1.2-1.2Z"/><path class="cls-6" d="M230.23,83.85a4.56,4.56,0,0,0,0,1.43c0,.51.41.46.41.46a3.81,3.81,0,0,0,0-1c-.09-.32-.32-.92-.32-.92Z"/><path class="cls-6" d="M207.38,84.91a1.4,1.4,0,0,0-.28.55c0,.28-.09.6.09.6a.59.59,0,0,0,.46-.51c0-.23-.09-.64-.28-.64Z"/><path class="cls-6" d="M208.54,85a.57.57,0,0,0,0,.46c.09.23.09.41.32.55s.23-.46.18-.69-.18-.32-.46-.32Z"/><path class="cls-6" d="M210.15,84.68c-.18.18-.18.28-.18.55s0,.6.23.69.32-.32.32-.64a.93.93,0,0,0-.37-.6Z"/><path class="cls-6" d="M211.62,84.45a.52.52,0,0,0-.37.55,1.07,1.07,0,0,0,.28.83c.23.18.41.18.51-.14a2.21,2.21,0,0,0,0-1c0-.23-.37-.28-.37-.28Z"/><path class="cls-6" d="M213,83.44c-.18,0-.18.46-.18.78s-.23,1-.23,1.24a.63.63,0,0,0,.46.55.48.48,0,0,0,.6-.46c0-.32-.18-.83-.18-1.06a8.19,8.19,0,0,0-.14-.92l-.32-.14Z"/><path class="cls-6" d="M214.76,83.21a.69.69,0,0,0-.37.6c0,.23.09,1.24,0,1.43s.32.69.32.69.55.23.69,0a3.78,3.78,0,0,0,0-1.61,12.1,12.1,0,0,0-.65-1.06Z"/><path class="cls-6" d="M216.32,83.34c0,.23-.23,1.43-.23,1.75a1.06,1.06,0,0,0,.23.78c.18.18.6,0,.6,0a1.43,1.43,0,0,0,.14-.55,7.24,7.24,0,0,0-.14-1.1c0-.18-.37-1.06-.37-1.06l-.23.18Z"/><path class="cls-6" d="M218.26,83a1.3,1.3,0,0,0-.32.74c0,.46-.09,1.47-.09,1.7a.91.91,0,0,0,.51.64c.18,0,.6-.32.64-.51a2.25,2.25,0,0,0-.09-1.43,5.1,5.1,0,0,1-.41-1.06l-.23-.09Z"/><path class="cls-6" d="M220,83a1.72,1.72,0,0,0-.37,1.15c0,.46.09,1.66.09,1.66a6.62,6.62,0,0,0,.92.23c.18,0,.37-1,.37-1.29a6.24,6.24,0,0,0-.32-1.15c-.09-.37-.69-.6-.69-.6Z"/><path class="cls-6" d="M222,82.88c-.23,0-.46.23-.46.92s0,1.89,0,1.89.32.41.6.32a1,1,0,0,0,.69-1.2,12.45,12.45,0,0,0-.51-1.56.5.5,0,0,0-.37-.37Z"/><path class="cls-6" d="M223.74,82.93a8.33,8.33,0,0,0-.32,1.56,11.58,11.58,0,0,0,.32,1.47c.09.18.51.09.64-.09a4,4,0,0,0-.14-1.61c-.09-.32-.32-1.29-.51-1.33Z"/><path class="cls-6" d="M225.44,83.3l-.28.46V85a2.4,2.4,0,0,0,.28,1s.37-.14.46-.37a7.63,7.63,0,0,0,0-1.52s.09-.78-.41-.83Z"/><path class="cls-6" d="M227,83.81c-.46.09-.46,1-.46,1.38a.72.72,0,0,0,.51.74c.28,0,.37-.83.37-.83L227,83.81Z"/><path class="cls-6" d="M228.48,83.76c-.23.09-.28.92-.28,1.24s-.09.92.28,1,.46-.87.41-1.43a1,1,0,0,0-.41-.78Z"/><path class="cls-5" d="M197.39,83.48c-.09.23-.55.55-.74.69s-.23.6-.23.6a15.91,15.91,0,0,1,1.47-.6A86.52,86.52,0,0,1,209,82.38a144.79,144.79,0,0,1,14.65-.83c5.57,0,12,.83,12.67.83,0-.14-.51-.87-.18-1s5.8.74,6.5.83,3.73,1.29,4.19,1.43.64,0,.88.41-.83.32-1.2.09a4.32,4.32,0,0,0-1.47-.51c-.41,0-1-.46-1.43-.37s0,.74.28.74a3.29,3.29,0,0,1,1.43.14,6.66,6.66,0,0,0,1.15.37.86.86,0,0,1,.65.74c0,.28.28.64.6.37a2.33,2.33,0,0,0,.69-1.06,2.28,2.28,0,0,0-.87-1.33,10.63,10.63,0,0,0-1.94-.6c-.46,0-2.4-.51-2.72-.55s-2.76-.74-3.69-.87-3.59-.46-3.82-.51-4.1-.23-5.07-.37-6.08-.28-9.4-.32a53.73,53.73,0,0,0-11.06.55,86,86,0,0,0-10.32,1.79,14.7,14.7,0,0,0-2.44.74c-.14.23.32.41.32.41Z"/><path class="cls-5" d="M195.08,83.76l-.37,0s-.55.55-.55.87,0,1.06.37,1.1.32-.18.41-.37a4.2,4.2,0,0,1,1.06-.69c.32-.18,0-.32-.28-.32s-.55-.32-.64-.64Z"/><path class="cls-6" d="M246.31,78.61s0,.74.18.78.28.32.6.51.28-.32.28-.51a1.22,1.22,0,0,0-.28-.74c-.18-.18-.78,0-.78,0Z"/><path class="cls-5" d="M197.2,79.39c-.32,0-.55-.14-.92.14s-.74,1.06-.46,1.24.55-.46.78-.64a4.58,4.58,0,0,0,.6-.74Z"/><path class="cls-5" d="M195.77,78.1a12.09,12.09,0,0,1,1.89.23c.78.18,1.57.37,1.57.69a4.44,4.44,0,0,1-1.94,1.89c-.83.37-.69.69-.28.69a9,9,0,0,0,2.44-.28c.46-.23,1.2-.41,1.38-1.15s.55-1.06.88-1.1a.78.78,0,0,1,.78.69c0,.41-.14.69.41.69s1.61-.28,1.61-.55-.69-1.06-.69-1.43V76c0-.28-1.29,0-1.61,0s-.65.09-.65.32.37.37.41.6-.09,1.29-.78,1.29-1.06,0-.69-.41a3.77,3.77,0,0,0,.6-1.06s.37-.6.14-.6-2.4.55-3.27.74a16.06,16.06,0,0,0-1.93.74c-.51.14-.28.41-.28.41Z"/><path class="cls-7" d="M204.94,76.95c0,.18,0,1.7.28,1.84s.51.28,1.38,0a6.91,6.91,0,0,1,2.26-.18c.51,0-.37-1-.88-1.06a4.15,4.15,0,0,0-1.66.55c-.55.23-.78.09-.87-.18a6.15,6.15,0,0,1-.09-1.15l-.41.18Z"/><path class="cls-5" d="M214.43,74.74c-.65,0-.41-.23-1.43,0s-1,.46-.92,1,.23,1.52.23,1.79-.32,1.15,0,1.38a1.8,1.8,0,0,0,1.29,0c.18-.09.28-.83.51-1.1a2.49,2.49,0,0,0,.6-1.06c0-.28-1-.14-1-.55s.18-.46.46-.69a1.19,1.19,0,0,0,.28-.78Z"/><path class="cls-5" d="M215.81,74.56a6.23,6.23,0,0,0-.09,1.79s-.83.28-.64.55.41.32.46.55.14,1.52.14,1.52,1.15,0,1.75,0,1.24.14,1.43-.18-.37-.74-.55-.92-1.75-.83-1.89-1.15a1.18,1.18,0,0,1,0-1c.14-.32.92-.74,1-1.06s-1.57-.09-1.57-.09Z"/><path class="cls-6" d="M221.21,74.37s-3.36.74-3.5,1.66a17.2,17.2,0,0,0,4.05,2.3,15.13,15.13,0,0,0,3.18-1.56c.92-.51,1.29-.55,1-.92a5,5,0,0,0-2.26-1.38c-.28.37,0,.51.32.78s1.29.32.78.78-.88-.14-1.47-.14-.6.23-1.38.69-1,.64-1.34.55-1.61-.46-1.57-1,.83-.78,1.15-1,1-.78,1-.78Z"/><path class="cls-5" d="M226.18,74.46s1.15.92,1.57,1.2-.09.64-.28.87a4.28,4.28,0,0,1-1.47.92,2.78,2.78,0,0,0-1.15,1.1s1.38.09,2.58.09.78-.74,1.15-1.2a1.23,1.23,0,0,1,1.15-.55c.51,0,.32.78.23,1.15a4.39,4.39,0,0,0-.09.87s1.11,0,1.24-.41a15.7,15.7,0,0,0-.09-2.44,2.3,2.3,0,0,1,.32-1.24s-.74-.32-1,0-.09.64-.37,1a1,1,0,0,1-1.11.41c-.51-.09,0-.69,0-1.66a11.66,11.66,0,0,0-2.63-.18Z"/><path class="cls-7" d="M232.49,75.57a3.51,3.51,0,0,0-.74.83c-.14.32-.28,1.33,0,1.56a4.42,4.42,0,0,0,1.75.37c.41,0,1.2,0,1.2,0s0-.87-.51-1a3.12,3.12,0,0,0-1.34.09c-.32,0-1-.23-.87-.6a11.4,11.4,0,0,1,.46-1.2Z"/><path class="cls-7" d="M237.47,77.09a3.39,3.39,0,0,1-.55,1.29c-.32.28-.14.37.09.32a1.59,1.59,0,0,0,.74-1,1.42,1.42,0,0,0-.28-.64Z"/><path class="cls-5" d="M238.85,75.71a1.55,1.55,0,0,0,0,.83,1.28,1.28,0,0,1,0,1,4.85,4.85,0,0,0-.32.87c-.09.32,0,.64-.37.92s-.18.46.09.55,1.24.32,1.61,0,.51-.92.78-.92,1.24,0,1.24,0,.51-.83-.92-.92.32-.6.6-.83-.23-.64-.42-.64A7.52,7.52,0,0,0,240,77s-.14-.83-.14-1.06-1.06-.23-1.06-.23Z"/><path class="cls-5" d="M238.57,73.36c0,.23,0,.46.28.46s.23-.41.23-.41l-.51,0Z"/><path class="cls-5" d="M193.7,75.66a.82.82,0,0,0-.69.69c0,.28.28.74.55.69s.18-.74.18-1a1.88,1.88,0,0,0,0-.41Z"/><path class="cls-5" d="M195.13,75.29a1,1,0,0,0,.23.92c.23.14.69.09.55-.23s-.18-.87-.46-.87-.32.18-.32.18Z"/><path class="cls-5" d="M196.46,75a.6.6,0,0,0,.09.46c.14.28.28.64.51.64s.32-1,.14-1.15-.74,0-.74,0Z"/><path class="cls-5" d="M198,74.6s-.28.28,0,.51.23.37.55.46.32-.46.14-.74-.65-.23-.65-.23Z"/><path class="cls-5" d="M199.23,74.37c-.23,0-.28.23-.09.32s.55,0,.55.37.18.6.37.41a1.08,1.08,0,0,0,0-1.06c-.18-.23-.83,0-.83,0Z"/><path class="cls-5" d="M200.93,75.06c.19,0,.52,0,.51-.14,0,0,.06,0,.14,0a60.2,60.2,0,0,1,9.08-1.43,152.57,152.57,0,0,1,17.74-.28c1.43.09,6.22.28,6.54.37s.92.18,1.11-.09.46,0,.42-.28-.78-.6-.92-.32-.14.69-.37.55.23-.78-.69-.83a101.49,101.49,0,0,0-11.38-.74,165.19,165.19,0,0,0-17.41,1.2c-3.32.51-5.11.92-5.11.92-.18.18-.23.23,0,.46s.14.51.37.55Z"/><path class="cls-5" d="M237.19,73.13a.52.52,0,0,0-.09.64c.23.32.51.18.55,0s.37-.23.46-.41-.92-.23-.92-.23Z"/><path class="cls-5" d="M192,72.49s-.14.28.09.37a5.27,5.27,0,0,0,3.64.87c2.49-.14,3.78-2.62,4.1-2.58a9.31,9.31,0,0,0,3.41,1.06c1.75,0,3.55-2.3,3.78-2.3a9.86,9.86,0,0,0,3.69,1.29c2,.14,3.59-1.66,3.92-1.66s.88,1.1,2.86,1.15,3.73-2,4-2,1.47,1.47,3.23,1.93,2.95-.74,3.73-1.43a8.46,8.46,0,0,0,3.92,2,5.08,5.08,0,0,0,3.23-1.24,9.6,9.6,0,0,0,3.18,2.3c1.43.41,3.13-.64,3.5-.69a1.27,1.27,0,0,1,1,.55,4.6,4.6,0,0,0,2.86,1.47,6.78,6.78,0,0,0,3.55-.46c.74-.28.69-.83.37-.64a8.7,8.7,0,0,1-3.87.51,3,3,0,0,1-2.63-2.21c-.14-.6-.32-.78-.64-.51a7.09,7.09,0,0,1-3.18,1.15,4.55,4.55,0,0,1-2.81-2c-.37-.69-.69-1.1-1.11-.92a5.32,5.32,0,0,1-3.5,1.61,2.68,2.68,0,0,1-2.81-2.21c-.23-.6-.37-.55-.6-.51s-.28.41-1.47,1.52-3.22.46-4-.09a4.91,4.91,0,0,1-1.52-2.21c-.37-.83-.78.14-1.24,1.06a4.2,4.2,0,0,1-3.13,1.93,3.9,3.9,0,0,1-2.72-1.43c-.46-.51-.69-.6-1,0a3.75,3.75,0,0,1-3.23,1.93,3.4,3.4,0,0,1-2.63-1.2c-.51-.46-.74-1.2-1.06-1.15s-.55.28-.69,1a3.54,3.54,0,0,1-3,2.44c-1.61,0-2.21-.64-3.73-1.43a5.08,5.08,0,0,1-2.95,2.71,4.61,4.61,0,0,1-3,.09c-.78-.18-1.34-.32-1.43-.14Z"/><path class="cls-5" d="M239.08,66.34a2.46,2.46,0,0,0,.48,1.15c.37.37.51.92.21,1.06s-1.36-.14-1.47.41.74,1.08,1.27,1.27,1.94.09,2.12-.41a2.71,2.71,0,0,0-.76-2.12,6.4,6.4,0,0,0-1.84-1.36Z"/><path class="cls-5" d="M234.06,65.72a1.87,1.87,0,0,0-1.08,0,2.57,2.57,0,0,0-1.8,1.54c-.21.87-.14,1.33.51,1.61s2,.44,2.28-.74c-.23.09-1.38-.21-1.27-.69s.32-.53.74-.85a2.27,2.27,0,0,0,.62-.83Z"/><path class="cls-5" d="M242.54,62a13.78,13.78,0,0,1-2,.46c-.67,0-.94.14-1,.57s.58.87,1.08,1a9.85,9.85,0,0,1,2.28,1,1.36,1.36,0,0,0-.62-1.89,1.77,1.77,0,0,0,.3-1.17Z"/><path class="cls-5" d="M238.16,62.66s-.58-.64-1.08-.57a1.71,1.71,0,0,0-1.22.78,1.29,1.29,0,0,0,.53,1.68c-.07-.55.69-1.36,1-1.54a6,6,0,0,1,.76-.35Z"/><path class="cls-5" d="M235.44,56.59s.21.37.37.74a3.79,3.79,0,0,1,.25,1.61,3.3,3.3,0,0,0,.55,2c.35.32.76.32,1.36-.09a3.58,3.58,0,0,0,1-2.42,10.18,10.18,0,0,1,.21-1.86,1.81,1.81,0,0,0-1.34,1.27,4.67,4.67,0,0,0-1.54-1.38,1.14,1.14,0,0,0-.85.11Z"/><path class="cls-5" d="M233.25,58.2a.91.91,0,0,0-.32.46,3.64,3.64,0,0,0,.14,1.63,2.12,2.12,0,0,0-2.53,1.4c0,.53,1.11,1.27,1.59,1.31a1.52,1.52,0,0,0,.92-.28s-1.27-.48-1.34-.9.53-.28,1.24-.09a3.59,3.59,0,0,0,2.56-.18,13,13,0,0,1-2.26-3.36Z"/><path class="cls-5" d="M224.57,64.6s-.21.51.09.69.44.16.44.51-.37.55-1.2.92-.21,1.1.37,1.5,2.42.62,2.81-.46,0-1.43-.69-2-1.82-1.2-1.82-1.2Z"/><path class="cls-5" d="M218.1,64.32a6.75,6.75,0,0,0-1.38,1.17A2.79,2.79,0,0,0,216,67.7c.16.76,1.2,1.06,2,.81s1.15-.32,1.68-1.7a2.66,2.66,0,0,1-2-.39c-.39-.39.12-.9.46-1.29a.62.62,0,0,0,0-.81Z"/><path class="cls-5" d="M225.81,57.53a19.46,19.46,0,0,1-1.57,1.56,5.17,5.17,0,0,0-1.27,1.5c-.21.44.32.62,1,.69s2.88-.18,3.48,0A1.45,1.45,0,0,0,226,59.7c.32-1,.32-1.29.23-1.66a.79.79,0,0,0-.44-.51Z"/><path class="cls-5" d="M222,61.63a1.15,1.15,0,0,0-1.08-.34,1.34,1.34,0,0,0-.87,1.1c-.07.28.25.55.39.41s.39-.74.74-.83a5.2,5.2,0,0,0,.83-.35Z"/><path class="cls-5" d="M224.89,53.92a2.79,2.79,0,0,0-1.41.14,1.15,1.15,0,0,0-.67,1.33c.07.48.65.16.83,0l1.24-1.43Z"/><path class="cls-5" d="M218,54.24a4.36,4.36,0,0,0,.21.83,11.47,11.47,0,0,1,.51,1.56,5.53,5.53,0,0,0,1,2.62,2.24,2.24,0,0,0,1.38.69s-.12-2.42-.14-3.7a21,21,0,0,0-.16-2.28,2.63,2.63,0,0,0-.58.85c0,.3-.21,1.17-.67.21a1.45,1.45,0,0,0-1.52-.78Z"/><path class="cls-5" d="M216.74,57.56a1.38,1.38,0,0,0-.35.74,3.89,3.89,0,0,0,.67,1.91,4,4,0,0,0-2.3.28c-.3.16-.46.83.3,1.52a2.18,2.18,0,0,0,2.23.44c-.18-.6-.83-.67-1.15-.74s-1.36-.39-.62-.6,3.27,0,4.31-.07a3,3,0,0,0-1.68-1.73,7.08,7.08,0,0,1-1.41-1.75Z"/><path class="cls-5" d="M209,66a4.09,4.09,0,0,1,.55.18,1.63,1.63,0,0,1,.78.67c.14.25-.23,1-1.06,1.36a2.11,2.11,0,0,0,3.36,0c.44-.74-.14-1-.07-1.56a2.07,2.07,0,0,1,1-1.66,1.47,1.47,0,0,1,1.84.23c.25-2.53-1.27-3.38-1.94-3.38s-1.08,1.2-1.29,1.79-.12,2.51-.41,2.78a1,1,0,0,1-1.13,0,3.66,3.66,0,0,0-1.2-.81A.38.38,0,0,0,209,66Z"/><path class="cls-5" d="M202.22,67.31s0,0,.39,0a1,1,0,0,0,.85-.92,1,1,0,0,0-1,.46l-.25.44Z"/><path class="cls-5" d="M202,67.82s-.53.21-.67.55-.25.92.16,1.2a2.36,2.36,0,0,0,2.76-.25,5.29,5.29,0,0,1-2.26-1.5Z"/><path class="cls-5" d="M205.79,63.1s-.85.07-1.06.39a1.2,1.2,0,0,0,.09,1.56c.58.46.37-.34.65-.85a3.12,3.12,0,0,0,.32-1.1Z"/><path class="cls-5" d="M209,59.21a3,3,0,0,1-.9,1.75c-.88.94-.9,1.13-1,1.56a2.18,2.18,0,0,0,2.14-.14,3.81,3.81,0,0,1,2.23-.64c-.18-.64-.48-1-1.11-1.08a3.12,3.12,0,0,0-1,.07,3.34,3.34,0,0,0,.14-.87c0-.44-.53-.64-.53-.64Z"/><path class="cls-5" d="M208,56a1.3,1.3,0,0,0-1.91,1,4,4,0,0,0,.55,1.56,6.25,6.25,0,0,1,1-2.14A1.74,1.74,0,0,1,208,56Z"/><path class="cls-5" d="M203.84,56.47a5.09,5.09,0,0,0-.28,1.61c-1.15-1.43-2-1-2.49-.74.69.14,1.89,2.81,2.3,3.73a1.85,1.85,0,0,0,1.7,1.15,14.92,14.92,0,0,0-1.24-5.75Z"/><path class="cls-5" d="M203.84,63.47a15.65,15.65,0,0,0-1.7-1.38c-.55-.32-1.38-.78-1.61-1.33a3.88,3.88,0,0,0,0,1.93s-2.67,1.1-.74,2.44c0-.55.09-1.43,1.24-1.33a12,12,0,0,0,2.17,0,1.71,1.71,0,0,0,.69-.37Z"/><path class="cls-5" d="M189.83,69.31s-.78,0-1.11.37a1.48,1.48,0,0,0,1.06,2.12c.09-.32.28-.55,0-.69s-.23-.92.14-1,0-.83,0-.83Z"/><path class="cls-5" d="M193,64.39a6.42,6.42,0,0,1-1,1.24,2.62,2.62,0,0,0-.69,1.79,3.79,3.79,0,0,0,.09,1.15s1.75-1,3.73-2c-.37-.28-1.43-.41-1.52-.92a4.85,4.85,0,0,0-.6-1.29Z"/><path class="cls-5" d="M189,62.42c-.81.17-1.24,1.82-1.32,2.57-.23,0-2.26-2.85-3.56-.54,1.07.22,1.22.74,1.63,1.46s1.46,3.4,2.63,3c-.19-2.26.92-3.18.62-6.44Z"/><path class="cls-7" d="M248.33,84.47l-.39-.06a.79.79,0,0,1,.37,0l0,0Z"/><path class="cls-4" d="M232.81,80.86l.6.09-.18.55a1,1,0,0,1-.69-.32c-.28-.32,0-.28.28-.32Z"/><path class="cls-4" d="M231,80.63a1.85,1.85,0,0,1,.6.28c.23.18,0,.64-.37.64s-.46-.78-.23-.92Z"/><path class="cls-4" d="M229.45,80.58l.23.32s-.28.37-.55.23-.14-.28.32-.55Z"/><path class="cls-4" d="M227.15,80.45l.28.14,0,.55s-.41,0-.55-.18,0-.32.32-.51Z"/><path class="cls-4" d="M201.58,82.33s.41.37.32.55-.23.23-.55,0-.09-.37.23-.6Z"/><path class="cls-4" d="M200.15,82.52s.46.28.46.51-.14.28-.41.18-.23-.37,0-.69Z"/><path class="cls-4" d="M198.45,82.93l.46.09c.18,0,.09.74-.09.83s-.18,0-.46-.28.09-.64.09-.64Z"/><path class="cls-4" d="M234.84,81.09c.28,0,.28-.09.55.14s.42.55,0,.6a4.17,4.17,0,0,1-1.15-.18V81l.55.09Z"/><path class="cls-4" d="M239.91,78.33l.41.37s-.41.28-.55,0,.14-.41.14-.41Z"/><path class="cls-4" d="M201.62,74.37a2,2,0,0,1-.23.46c-.18-.23-.51-.37-.28-.46s.6-.32.51,0Z"/><path class="cls-4" d="M202.34,192.94c.35.07,1.17.16,1.22.67s-.39.48-.41.76,0,3.31.07,3.63.39.67.32.83-.32.25-.71.18-.81-.11-1.13-.21-.53-.51-.3-.62.41-.16.44-.48.12-3.75,0-3.89-.23-.16-.32-.37,0-.44.14-.46l.65,0Z"/><path class="cls-4" d="M204.83,193.65a4.5,4.5,0,0,1,1.24,0,3.94,3.94,0,0,1,.65.94c.12.23,1,1.68,1.08,1.77s.32.07.53-.21,1.06-1.4,1.15-1.61a.53.53,0,0,1,.51-.3,3.67,3.67,0,0,1,1.34.35c0,.14-.35.58-.37.78s.09,4,.12,4.16.25.41.16.58-1,.14-1.29.14-.76-.28-.74-.44.28-.3.32-.46,0-2.44,0-2.6-.3-.14-.53.14-1.13,2.12-1.29,2.16-.35-.16-.48-.39-1.08-1.89-1.17-2.09-.23-.48-.35-.32a4.18,4.18,0,0,0-.16,1.29c0,.32.07,1,.07,1.22s.28.51.16.6a1.61,1.61,0,0,1-.78.07c-.25,0-.55,0-.55-.32s.25-.44.28-.6,0-3.22,0-3.66-.07-1.17.07-1.22Z"/><path class="cls-4" d="M215,195.45c-.21,0-.3.16-.25.44s-.16,1.22-.11,1.52-.09.48.69.46.81-.74.83-1.15a2,2,0,0,0-.21-1c-.12-.18-.74-.28-.94-.25Zm-1.8-.69s1.08-.12,1.47-.12a5.07,5.07,0,0,1,2.37.55,2,2,0,0,1,.85,2.14,1.66,1.66,0,0,1-1.43,1.31c-.65.12-1.75-.07-1.87,0s0,.83,0,1.15.23.3.3.51-.44.39-.87.34a2.29,2.29,0,0,1-1.18-.46c-.21-.21.23-.37.3-.51s.16-3,.16-3.29a4.67,4.67,0,0,0-.18-1.2.31.31,0,0,1,.09-.44Z"/><path class="cls-4" d="M218.53,195.06l.58,0c.23,0,1.36.07,2.16,0s2.05-.12,2.12.07a10.67,10.67,0,0,1,.09,1.5.28.28,0,0,1-.37.28c-.18,0-.21-.3-.35-.55s-.46-.53-.65-.53l-1.43,0c-.41,0-.46.18-.51.55s0,1,.18,1a1,1,0,0,0,.74-.09,2.12,2.12,0,0,0,.6-.62c.14-.16.32,0,.35.16s0,2,0,2.21-.18.3-.35.25-.32-.41-.37-.58a.34.34,0,0,0-.28-.28,1.53,1.53,0,0,0-.65,0c-.14.07-.12.64-.09.9s.07.64.25.74a4.71,4.71,0,0,0,1.17.14,2.6,2.6,0,0,0,.81-.18,10.56,10.56,0,0,0,.92-.87c.16-.14.37.09.35.3a9.64,9.64,0,0,1-.37.94c-.12.35-.39.46-.81.48s-3.89-.07-4.12-.09a.52.52,0,0,1-.48-.39c0-.23.69-.58.74-.74a34.66,34.66,0,0,0,0-3.77c-.09-.3-.48-.58-.18-.85Z"/><path class="cls-4" d="M224.8,195.24a2,2,0,0,1,1.06-.18,3.14,3.14,0,0,1,.9.09,11.82,11.82,0,0,1,1.43,1.75c.28.32.81,1,.9.92a7.52,7.52,0,0,0,0-1.77c0-.18-.53-.44-.44-.78s.58-.39.87-.39a.67.67,0,0,1,.67.32c.14.25-.14.21-.18.53s-.16,4-.09,4.51-.58.37-.76.37-.32-.18-.69-.64-1.52-1.86-1.77-2.19-.58-.46-.65-.23a13.37,13.37,0,0,0,0,1.7,1.13,1.13,0,0,0,.3.87c.23.23.21.58.07.67a2.5,2.5,0,0,1-1.11,0c-.23-.07-.51-.14-.53-.34s.32-.25.39-.37,0-3.08,0-3.47a2.27,2.27,0,0,0-.14-.9c-.07-.21-.44-.34-.25-.51Z"/><path class="cls-4" d="M233.21,195.54s0,.41,0,.64-.09,2.78-.09,3,.23.71,1.11.23a2.49,2.49,0,0,0,1.11-2.6c-.16-1-.69-1.13-1-1.22a4.71,4.71,0,0,0-1.13,0Zm-2-.39c0-.12,0-.25.21-.32a12.1,12.1,0,0,1,3.41,0,2,2,0,0,1,2,2,6,6,0,0,1-.39,2.37,4.36,4.36,0,0,1-2,1.06,12.35,12.35,0,0,1-2.95.21c-.44-.09-.25-.37-.23-.55a1.09,1.09,0,0,1,.21-.44,7.32,7.32,0,0,0,0-1.66c0-.6,0-2-.07-2.12s-.23-.39-.23-.51Z"/><path class="cls-4" d="M239.68,193.86c.48,0,.67.25.53.48s-.41.35-.41.51-.07,3.06,0,3.27.09.28.46.35.32.62.16.67-1.64.44-2.12.53-.6,0-.65-.25.58-.69.58-1,.07-3.17,0-3.38-.78-.32-.55-.64,1.54-.44,2-.48Z"/><path class="cls-7" d="M258.77,163.55V88.46a.74.74,0,0,0-.74-.74H185.61a.74.74,0,0,0-.74.74v75.27c0,3.13,1.89,10.4,12.12,10.4,9.42,0,11.87-.18,13.9-.09,4.93.22,7.39,1.92,10.61,6,1.77-2.86,6.39-6.21,9.9-6.21h15.8c4.05,0,11.56-3.17,11.56-10.31Z"/><path class="cls-4" d="M216.83,102.12c.51-.09.32-1-.23-1.47A4,4,0,0,1,215.35,98a3.07,3.07,0,0,0-.65-2.25,7.08,7.08,0,0,1-.83-3.45c0-.92,0-1.89-.41-2.07.6-.09,1.38.74,1.61,1.29a12.18,12.18,0,0,0,.78,2.53c.46.64,1.61,2,1.71,2.71A6.9,6.9,0,0,0,219,99.59c.6.64.55.92.92,1.15s.51-.14.64-1.33l1.29-11.18s1.34,11.59,1.34,12,.14.6.41.64.55-.37.78-.78.78-.78,1.1-1.24a5.07,5.07,0,0,0,.74-2.44,3.64,3.64,0,0,1,.88-2.25,3.26,3.26,0,0,0,1-2.12,3.64,3.64,0,0,1,1.61-2.16,2.83,2.83,0,0,0-.51,1.84,4.34,4.34,0,0,1-.51,3.17c-.74,1.29-.37,2.76-.69,3.87a14.69,14.69,0,0,1-1.52,2.71c-.37.74-.41.92,0,1s1-.46,1.61-.92,10-7.41,10-7.41-8.34,9.34-8.85,9.85-.74,1.06-.32,1.24,1.2-.18,1.7-.32,1.47,0,1.84-.09a23.86,23.86,0,0,1,2.49-1.47c.6-.14.74.18,1.71-.09s2.35-1.79,4.84-1.33a6.9,6.9,0,0,0-2.17,1.15,6.51,6.51,0,0,1-2.16,1.61,5.82,5.82,0,0,0-1.8.55c-.55.32-1.8,1.7-2.81,1.7s-2.21.32-2.26.92.55.74,1.24.87S243.92,110,243.92,110s-12,1.29-12.67,1.38-.92.28-.69.55.69.37,1.29.83a3.12,3.12,0,0,0,1.75.83,6.5,6.5,0,0,1,2.58,1.06,11.9,11.9,0,0,0,2.58,1.66c.92.37,2.53.64,3.18,2.53a5.94,5.94,0,0,0-3-1.15,6.76,6.76,0,0,1-3-1,4.21,4.21,0,0,0-2.21-.69,9.57,9.57,0,0,1-3.22-1.24c-.78-.46-1.06-.46-1.15-.18s.14.64.41,1,8.62,11,8.62,11-10.32-9-10.6-9.16-.64-.14-.69.32.28.78.23,1.2a3,3,0,0,0,.28,1.52,11.64,11.64,0,0,1,1.11,2.62,26.88,26.88,0,0,1,.18,2.81,5.66,5.66,0,0,1,.69,3.63,6.55,6.55,0,0,0-1.43-2.3,9,9,0,0,1-1.11-3,5.41,5.41,0,0,0-1.24-2,9.79,9.79,0,0,1-1.2-3.08c-.18-.92-1-.87-1.11.23s-1.7,13.2-1.7,13.2-1-11-1.06-12.28-.46-1.33-.92-.69-.46,1.15-1.29,1.56a2,2,0,0,0-1.2,1.89,4.59,4.59,0,0,1-1.29,2.3c-.37.41-2.12,3.59-3.46,3.86a2.22,2.22,0,0,0,1.06-1.89,2.74,2.74,0,0,1,.51-2.39c.6-.69,1-.55,1.06-1.33a5.31,5.31,0,0,1,.78-3.08c.74-.87,1.66-2.3,1.06-2.85s-1.24.37-2,1-9.26,8-9.26,8,7.69-10.31,8.06-11-.18-1.33-.83-1.06-.88.23-1.75.55-1.8,1.24-3.18,1.66-5,.28-6.36,2c.41-1.52,1.24-2.62,2.16-2.81a11.25,11.25,0,0,0,2.53-.41c.83-.37,1.7-1.61,2.35-2a17.26,17.26,0,0,1,2.44-.87c.65-.23,1.34-1.2,1.24-1.52s-.55-.37-1.24-.41l-12.85-.78s13.41-1.79,14-1.93,1.15-.74.09-1.06a17,17,0,0,0-2.12-.37c-.51-.14-1.15-1.38-2.81-1.61a6.57,6.57,0,0,1-3.32-1.29c-.83-.6-2.3-1.79-3-1.84a5.79,5.79,0,0,1,2.9,0c.55.23,1.34,1.06,2.16,1.2a9.94,9.94,0,0,1,2.53.28,19.82,19.82,0,0,0,3.55,1.38,2.86,2.86,0,0,0,1.38-.14c.28-.18.37-.92-.37-1.61s-7.83-10-7.83-10l9.91,8.24c.78.64,1,1.06,1.47,1Z"/><path class="cls-5" d="M213.51,109.94a7.88,7.88,0,1,0,7.88-7.87,7.87,7.87,0,0,0-7.88,7.87Z"/><path class="cls-4" d="M216,110c.07.23.21,1.47.3,1.73a4.05,4.05,0,0,1,.23,1c0,.23-.14.25-.14.25s-.44-.23-.48-.51-.25-.85-.28-1a1.67,1.67,0,0,1,.07-.69,2.22,2.22,0,0,1,.3-.74Z"/><path class="cls-4" d="M219.78,114.19a2.25,2.25,0,0,0,.88.53,14.13,14.13,0,0,0,2.12-.07c.76,0,.09.23,0,.53s0,.6-.46.62-1.5.23-1.73,0a6.62,6.62,0,0,1-.67-.83,2.19,2.19,0,0,1-.16-.78Z"/><path class="cls-4" d="M218,112.68a1.4,1.4,0,0,1,.67-.35c.39-.07.83.25,1.27.51a9.9,9.9,0,0,0,3.25.09c.78-.09.81-.67,1-.76s.6.23.74.39.07.51-.09.53-.83-.12-1.11-.12-.62.53-.78.62a5.88,5.88,0,0,1-1.8.21,4.28,4.28,0,0,1-1.29-.44,2.94,2.94,0,0,0-.74-.21,9.61,9.61,0,0,1-1.13,0c-.09,0-.07-.41,0-.51Z"/><path class="cls-4" d="M220.12,109.71s-.51,1-.25,1.15.85.07,1,.21.07.46.64.44.6-.39.85-.44.58,0,.67-.35a2.12,2.12,0,0,0,0-.71,1.86,1.86,0,0,1,.53.9c0,.44-.25.67-.65.76s-.48,0-.74.14a1.78,1.78,0,0,1-.78.32c-.28,0-.69-.28-.92-.35a5.35,5.35,0,0,1-1.08-.14.77.77,0,0,1-.3-1,4.76,4.76,0,0,1,.94-.92Z"/><path class="cls-4" d="M223,107.52a6.23,6.23,0,0,1,1.15-.32,9.85,9.85,0,0,1,1.47.12,2.63,2.63,0,0,1,.64.44c.14.12,0,.62-.25.71s-.51.51-.81.48-.76.09-.9,0a1.47,1.47,0,0,0-.53-.32c-.23,0-.37.07-.6,0s-.3-.41-.25-.58a3.67,3.67,0,0,0,.07-.53Z"/><path class="cls-4" d="M222.59,106.1c.18,0,1.22-.16,1.54-.25a4.6,4.6,0,0,1,1.87,0c.51.16.9.69.81.92s-.51.16-.67.09a2,2,0,0,0-.6-.25c-.18,0-1.27.21-1.52.18a6.6,6.6,0,0,1-1.06-.14c-.16-.07-.37-.55-.37-.55Z"/><path class="cls-4" d="M219.73,106.28s.16.46,0,.46a3.66,3.66,0,0,0-.83-.14c-.25,0-.21.37,0,.48s.41.23.71.44.53.76.37.81a6,6,0,0,1-1.91.6c-.81,0-1.22-.62-1.59-1a2.87,2.87,0,0,1,1.17-.85c.3-.09.81-.14.78-.28a.56.56,0,0,0-.44-.37,5.61,5.61,0,0,0-1,.23c-.53.14-.6.28-.78.28s.16-.53.3-.69a3,3,0,0,1,1.89-.6,1.89,1.89,0,0,1,1.31.6Z"/><path class="cls-4" d="M227.17,109.52a3.57,3.57,0,0,1,.35.81,4.7,4.7,0,0,1-.18,1.22c-.07.11-.18.71-.44.69s0-.71,0-1.22a4.67,4.67,0,0,1,.3-1.5Z"/><path class="cls-8" d="M216.74,165.75s-.74-.09-2.49-.14a77.3,77.3,0,0,0-8.75.37c-2.67.32-4.84.78-5.3.87a.68.68,0,0,1-.78-.69c0-.32-.33-17.12-.31-17.34s0-4.59,0-5a10.63,10.63,0,0,1,.37-2.33c.16-.24,1.79-2.25,1.79-2.25a7.13,7.13,0,0,0,0-1,1.83,1.83,0,0,1,.35-1.19,3.82,3.82,0,0,1,.75-.38s0-.74.09-1.1.14-.69.41-.74a26.68,26.68,0,0,1,3.41.28c1.43.18,6.73-.46,9.12-.28s5.21,1.2,6.22,2.16c.46-.74,2.63-1.61,4.51-1.79s5.39.32,7.37.37,5.23-.18,5.67-.21.81-.14.92.67.18.41.74,1,.37.74.55,1.1.64.55,1.29,1.1,1.11.74,1.11,1.29-.18,7.27-.28,10.21-.64,14-.64,15.46-1.2.92-2.67.64a83.79,83.79,0,0,0-9.86-1c-4.24-.18-5.71.18-6.91.74s-2.58,1.1-3.5.46a5.76,5.76,0,0,0-3.13-1.2Z"/><path class="cls-4" d="M199.92,151.59c0,.43-.05.81-.05,1,0,.87.32,10.54.32,11.55s0,1.29.37,1.33a11.89,11.89,0,0,0,1.75-.28,14.76,14.76,0,0,0,2.67-.41c.32-.18,0-.28-1.06-.46s-2.81.32-3.18.09-.18-2.35-.23-5.34c0-1.85-.14-5.19-.24-7.54H201c0,.47,0,.9,0,1.28,0,2.62.28,7.87.37,9s-.14,1.79.6,1.93,1.75.18,1.61-.18-.83-.23-1.38-.46-.37-1.61-.41-2.85c0-.61-.17-4.71-.31-8.72h.73c.09,3.45.19,9.69.22,10.29s.92,1,1.47,1.1,1.89-.28,1.52-.46-1.43-.32-1.84-.46-.55-.69-.6-1.43c0-.31-.15-4.43-.29-9.06h1c.07,1.67.12,3,.12,3.48a54.52,54.52,0,0,0,.18,6c.18.32.69.37,1.75.32a61.49,61.49,0,0,1,8.06-.28,20.79,20.79,0,0,1,6,1.1c1,.18,1-.28,1-.6,0-.17,0-5.19,0-10.07H222c0,1.62,0,2.94.06,3.48.14,1.93-.18,6.76,0,7.18s1.29-.14,2.67-.6a27.45,27.45,0,0,1,6.08-.55c1.34,0,5.44.78,6.08.87s1,.18,1.43-.83.18-6.81.28-7.59c0-.19.05-.94.09-2h.77c0,2.7-.08,9.15-.12,9.65s-.46,1.38-1,1.47a6.26,6.26,0,0,0-1.2.37,3.75,3.75,0,0,0,2,.18c.37-.09.65-.28.6-2.9,0-1.21.16-5,.36-8.78h.63c-.15,2.5-.45,9.42-.21,9.42s.64-.92.69-2.07c0-.77.23-4.43.35-7.35h1.87c-.15,3.85-.61,13.18-.61,14.53s-1.2.92-2.67.64a83.79,83.79,0,0,0-9.86-1c-4.24-.18-5.71.18-6.91.74s-2.58,1.1-3.5.46a5.76,5.76,0,0,0-3.13-1.2s-.74-.09-2.49-.14a77.3,77.3,0,0,0-8.75.37c-2.67.32-4.84.78-5.3.87a.68.68,0,0,1-.78-.69c0-.24-.17-9.74-.27-14.58Zm7.67,0,.11,0a2,2,0,0,0,.37,0,1.39,1.39,0,0,0,.29,0h1.73a.59.59,0,0,1,.14.22c-.55.13-.86.2-1.43.28-.35,0-.54,0-.87,0a4,4,0,0,1-1,.14c-.33,0-.83.06-.83-.28,0-.12,0-.28.09-.28a.46.46,0,0,0,.28-.13Zm5.22,0s0,.08,0,.13h-.65a.22.22,0,0,1-.19-.13Zm3,0a.8.8,0,0,1-.42.13,3.26,3.26,0,0,1-.46-.09l-.18,0Zm3.17,0a.64.64,0,0,1,.18.36,6,6,0,0,1-1.75-.36Zm5.69,0a2.06,2.06,0,0,1-.44.31c0-.08-.14-.13-.14-.23a.12.12,0,0,1,0-.08Zm2,0-.16.08-.1-.08Zm3.51,0a2.27,2.27,0,0,1,.57.17,3.64,3.64,0,0,1-.28.32c-.12.13-.18.32-.37.32a.7.7,0,0,1-.74-.55c.22-.11.27-.22.45-.26Zm9.92,12.59c.69-.09.92.09.78-.92s-.51-.55-.55,0a2.74,2.74,0,0,1-.23.92Zm-1.24.6v.55a20,20,0,0,0,2.44.32c.41,0,.37-.37.28-1.06s-.23.28-.51.32-2.21-.14-2.21-.14ZM229.31,163c.42,0,1.8-.14,2.35-.14s-.14-.69-.74-.64a4.64,4.64,0,0,0-1.61.78ZM222,164.37c-.23,0-1,.23-.92.41a1.51,1.51,0,0,0,1.24.18c.37-.14-.32-.6-.32-.6Zm-7.51-1.2a3.4,3.4,0,0,0-1.15,0c-.41.14-.6.46,0,.55a5.81,5.81,0,0,0,1.47,0l-.37-.55Zm-4.65-.55h4c1.24,0,1.89-.32,1-.46a17.66,17.66,0,0,0-3.18-.18,3.83,3.83,0,0,0-1.84.64Zm25.4-4.92h1.08c.26,0,.38.15.61.28a1.18,1.18,0,0,1,.46.37h-1c-.23,0-.33-.13-.56-.14s-.63,0-.92-.18c0,0,0-.13,0-.18.15-.06.22-.14.38-.14ZM233,159.1h1.2a2.26,2.26,0,0,0,.09.3,2.12,2.12,0,0,1-.76.14c-.15,0-.29,0-.39,0s-.08-.24-.14-.39Zm-1.8-.67a1.6,1.6,0,0,1,.37.51l0,.18-.51,0v-.37l.18-.37Zm1.34-.37a1.26,1.26,0,0,1-.6-.18.9.9,0,0,1,1-.6,1.36,1.36,0,0,1,.83.28,1.22,1.22,0,0,1-1.2.51Zm-4.1,1.24c.35-.2.67-.44,1-.64s.28-.38.46-.6a1.11,1.11,0,0,1,.92-.41c-.12.46-.41.6-.69,1s-.54.69-1,.69Zm-3.55.37a5.83,5.83,0,0,1,1.57-.46c.2,0,.31-.18.52-.18h.73l0,.18c-.46.18-.86.16-1.15.55a.9.9,0,0,1-.74.46,1.19,1.19,0,0,1-1-.55Zm2.35-1.52a5.85,5.85,0,0,1,1.43-.18,1.49,1.49,0,0,1-.32.28c-.15.09-.18.28-.37.28a.9.9,0,0,1-.74-.37Zm-2.95-.09h1.93c0,.06,0,.15,0,.18a2.77,2.77,0,0,1-.37.18c-.32.18-.5.41-.87.41a1,1,0,0,1-.55-.23c-.06,0-.15,0-.18,0s.07-.37,0-.51Zm11.1-1.87a4.38,4.38,0,0,0,.77,0,1,1,0,0,1,.89.41,1,1,0,0,1-.37.09c-.37,0-.55-.28-.92-.28-.14,0-.23,0-.37,0v-.26ZM234,155.9c-.14.21-.34.55-.6.55a2.82,2.82,0,0,1-1.24-.18,1.31,1.31,0,0,1,1.15-.55,2.12,2.12,0,0,1,.69.18Zm-4.51.23h1l.18.18c0,.06,0,.14,0,.18s-.29.08-.46.14a4,4,0,0,0-.51.23,1.14,1.14,0,0,1-.28-.55c0-.08.08-.11.09-.18Zm7.51-.92c-.07.15-.15.32-.32.32a.73.73,0,0,1-.55-.32c0-.1-.09-.23,0-.28.32-.16.6.06.87.28Zm-2.67-.37c.38.06.63,0,1,.14s.31.3.46.51c-.08,0-.13.14-.23.14s-.24-.17-.42-.23a5.59,5.59,0,0,1-.87-.28l.09-.28Zm-2.58.09c.15,0,.23-.09.37-.14s.43-.17.69-.28l.23.37a3.16,3.16,0,0,1-1.47.28c.07-.09.07-.23.18-.23Zm2.44-1.33c0-.17,0-.33.18-.41s.31,0,.51,0a3.2,3.2,0,0,1,.74,0c.09,0,.15-.09.23,0s.06.15.09.23.14.18.14.32-.18.23-.35.23a10.22,10.22,0,0,1-1.54-.23Zm-1.61-.51a1.51,1.51,0,0,1,.78.14,1.31,1.31,0,0,1-.69.41c-.29.08-.43.28-.74.28a.8.8,0,0,1-.32-.09,1.47,1.47,0,0,1,1-.74Zm-2.76.41c.18,0,.51-.06.51.14s-.1.24-.18.37-.18.08-.18.18.21.3.37.46a1,1,0,0,1-.55.23c-.23,0-.36.18-.6.18-.09,0-.12-.09-.18-.14.2-.26.4-.38.51-.69a3.57,3.57,0,0,1-.55-.28,1.42,1.42,0,0,1,.88-.46Zm-2.72,3c.44,0,.69,0,1.13,0,0,.24,0,.39,0,.63h-.68c-.16,0-.3,0-.4-.09s0-.37,0-.51Zm-2.88.51c.18,0,.27-.13.44-.18a1.75,1.75,0,0,1,.64-.14,1,1,0,0,1,.64.32s0,.13,0,.18a1.84,1.84,0,0,1-1.12.41h-.66c0-.23-.23-.6,0-.6Zm.12-1.29a4.44,4.44,0,0,1,.75-.18h.73a2.75,2.75,0,0,1-.18.37l.23.09-.18.11H224.2l.14-.39Zm2.72-3.17c.1-.33.33-.69.69-.69.18,0,.37.09.37.28s-.17.24-.32.32a.86.86,0,0,1-.46.18c-.12,0-.17-.06-.28-.09Zm-2.44.14a2.39,2.39,0,0,1,1-.23,3.6,3.6,0,0,1,.5,0v.74c.36,0,.63-.15.92,0,.13.08.14.24.23.37a1.4,1.4,0,0,1,.37.69c0,.21,0,.37.09.55s.15,0,.18.09a1.32,1.32,0,0,1,.14.37,1.49,1.49,0,0,1-.55.14,1.94,1.94,0,0,0,0,.37c-.1,0-.16.09-.28.09s-.26-.19-.37-.37a1.49,1.49,0,0,0-.46-.51,1.76,1.76,0,0,1-.74-.87c-.13-.35.06-.64-.18-.92s-.28-.07-.46-.09-.31-.28-.37-.51Zm10.83,6.39h.36c.12,0,.17-.09.29-.09a1.43,1.43,0,0,1,.92.28c.1.07.23.14.23.28s-.23.37-.46.41a3.16,3.16,0,0,1-.74,0,1.38,1.38,0,0,1-.69-.09.51.51,0,0,1-.23-.51c0-.12.28-.22.32-.32Zm-24.19,0c.43,0,.82-.08,1.06.25a1.33,1.33,0,0,1-.65.23c-.12,0-.15-.12-.23-.18s-.15,0-.18-.09,0-.14,0-.21Zm-2.72-.81c.1,0,.16-.09.28-.09.41,0,.44.53.78.74a5.17,5.17,0,0,0,.92.32.82.82,0,0,1-.78.37c-.33,0-.51-.23-.69-.51s-.29-.16-.37-.32a1.43,1.43,0,0,1-.14-.51Zm-.74,1.47a1.51,1.51,0,0,1-.55-.14c-.06,0-.14,0-.18,0s-.13-.25-.23-.37-.56-.15-.74-.41c-.07-.1,0-.23,0-.37.25-.13.44,0,.71,0a1.45,1.45,0,0,0,.39,0c.09,0,.13-.16.23-.16s.39,0,.64,0c0,.26,0,.41,0,.67s.14.22.14.37a.46.46,0,0,1-.46.46Zm.55-2.53a.57.57,0,0,1,.51-.37c.25,0,.39.13.64.14.07-.14.07-.37.23-.37a1.33,1.33,0,0,1,.64.23,1,1,0,0,1-.92.51,4,4,0,0,1-1.11-.14Zm2.12.51c.41.1.59.46.69.87a1.89,1.89,0,0,1-.36,0,.56.56,0,0,1-.56-.55c0-.11.18-.26.23-.37Zm1.57.37c.14-.08.21-.23.37-.23a2.27,2.27,0,0,1,.28,0l0,.37-.09.18a1.31,1.31,0,0,1-.55-.18s0-.13,0-.18Zm2.3-.32a1,1,0,0,1,.78.32c.1.1.23.17.23.32s-.27.21-.46.23V159l.37.18c-.07.09-.09.17-.18.23s-.13,0-.18,0,0,.16-.09.18a.77.77,0,0,1-.23,0,1.29,1.29,0,0,1-1-.37c-.12-.1-.32-.15-.32-.32s.14-.33.18-.55-.06-.37.09-.46a1.28,1.28,0,0,1,.78-.14Zm2.17,1.77h1.38l.09.3c-.07,0-.1-.09-.18-.09-.25,0-.39.09-.64.09a1,1,0,0,1-.65-.3Zm3.32-.81v.37a1,1,0,0,1-.74.41c-.23,0-.33-.17-.51-.32s-.14,0-.18,0,0-.13,0-.18,0-.24,0-.28.23,0,.37,0c.41,0,.64,0,1.06,0Zm-4.61-2.3c.17-.06.17-.18.28-.18.35,0,.53.16.88.18,0,.29,0,.45,0,.74h-.58c-.36,0-.51-.38-.56-.74Zm.09-1c.18-.13.29-.28.52-.28a1.43,1.43,0,0,0,.22,0v.55a2,2,0,0,1-.74-.28Zm-1.94,0c.22,0,.43-.13.64-.09,0,.16,0,.3-.09.41s-.24.08-.37.14-.07.13-.14.18a.65.65,0,0,0,.41.32.79.79,0,0,1-.14.37s-.14,0-.18,0-.14.37-.32.37a3.64,3.64,0,0,1-.92-.18c-.17,0-.23-.23-.41-.23a1,1,0,0,0-.41.09c-.07,0,0,.18-.09.18s-.1-.09-.18-.09l0-.33a1.14,1.14,0,0,0,.93-.36c.06-.06.15,0,.18-.09s-.08-.38,0-.55.13-.06.18-.09c.27-.17.51-.09.83-.09Zm-2.76.69a3.15,3.15,0,0,1-.46,0c-.16,0-.33,0-.41-.09a1,1,0,0,1-.14-.77h1.14a2.46,2.46,0,0,1,1.07.23l-.14.18a1.2,1.2,0,0,0-.78.32c-.09.08-.15.18-.28.18Zm-4.51-.23c.47-.23.78-.23,1.24-.41.22-.08.36-.23.6-.23s.36.15.55.28a2,2,0,0,1,.32.23,4.17,4.17,0,0,1-1.15.32c-.07,0-.12.09-.2.09h-1.19l-.18-.28ZM217.7,154c.29,0,.61-.14.88,0s.28.25.37.46.14.09.14.18a3,3,0,0,1,0,.32h-.4a.8.8,0,0,1-.56-.28c-.14-.11-.32-.1-.37-.28a2,2,0,0,1,0-.37Zm-2-.23.32.14,0,.18a2,2,0,0,1-.37-.14l.09-.18Zm-3.5.14c.39,0,.58-.23,1-.23.22,0,.33,0,.55,0s.61-.07.78.18c0,0,0,.13,0,.18a3.88,3.88,0,0,1-1.36.18,3.16,3.16,0,0,1-.81,0c-.08,0-.12-.32-.18-.37Zm-3.59.23a1.69,1.69,0,0,0,.92-.23,1.57,1.57,0,0,0,.23-.14c.07-.06,0-.18.14-.18.35,0,.46.3.74.51a4.88,4.88,0,0,1-.83.55c-.14.07-.21.18-.37.18s-.36-.21-.55-.32-.32,0-.32-.18a1,1,0,0,1,0-.18Zm-1.2,0c.14,0,.18.14.28.23a1.44,1.44,0,0,1,.32.41c-.38,0-.61-.12-1,0s-.32.28-.56.28h-.54v-.31a.35.35,0,0,1,.18-.33c.11-.06.24,0,.37,0a3.73,3.73,0,0,1,.92-.23Zm11.24-.92c-.4,0-.6-.22-1-.37-.06,0-.15.06-.18,0a.47.47,0,0,1-.09-.37c.06-.22.32-.15.55-.18a4.77,4.77,0,0,1,1.47.51.81.81,0,0,1-.78.41Zm-2.53-.78c.14,0,.45-.16.55-.09s0,.28,0,.46l-.23,0c-.06,0-.16,0-.18,0s-.1-.23-.18-.37Zm-.62.41c-.27-.06-.59-.14-.58-.41,0-.09.15-.08.23-.09l.35,0c0,.1.11.16.11.28s-.07.17-.11.28Zm-3.2-.14a.76.76,0,0,0,.32,0c.08,0,.1-.12.18-.14a3,3,0,0,1,1,0c.08,0,.12.08.18.09,0,.18-.15.25-.23.41s-.14.37-.32.37a1.61,1.61,0,0,1-.88-.28c-.12-.06-.28-.09-.28-.23s0-.11,0-.18Zm-6.45.37a12.07,12.07,0,0,1,1.69-.14,1.33,1.33,0,0,0,.43,0c.15,0,.18-.21.32-.28.31-.16.56,0,.92,0a2.76,2.76,0,0,1,1.15.14c.18.07.37.16.37.37s-.13.14-.23.14-.39,0-.63,0-.35.08-.56.09a4.92,4.92,0,0,0-.83,0,4.57,4.57,0,0,1-.78.18,5.27,5.27,0,0,1-1.24-.28,2.78,2.78,0,0,1-.6-.18Zm11.66,2.76.28-.28,1.34-.16v.66a1,1,0,0,1-.37.79l.32.6v.23h-.36a.84.84,0,0,1-.38-.09c-.08,0-.06-.15-.14-.18s-.24,0-.37,0-.18-.16-.28-.28c0,.63.18,1,.18,1.61,0,.12-.06.17-.09.28a1.56,1.56,0,0,1-.55-.18c-.13-.07-.28-.13-.28-.28a.56.56,0,0,1,.48-.6c0-.08.07-.1.07-.18s-.09-.28-.09-.46c0-.36.65-.29.65-.64s-.47-.35-.78-.55a1.24,1.24,0,0,0,.37-.23Z"/><path class="cls-4" d="M200.86,143.59a2,2,0,0,0-.06.53c0,.83.17,4.72.19,7.47h-.71c-.06-1.46-.11-2.53-.13-2.63s-.15,1.49-.23,2.63h-.78c0-1.62-.05-2.71,0-2.77,0-.22,0-4.59,0-5,0-.05,0-.12,0-.2Zm1.12,0c0,2.36.1,5,.15,6.24,0,.4,0,1,.05,1.76h-.73c-.12-3.56-.24-7.07-.25-8Zm1.42,0c.06,2.05.21,5.42.32,8h-1c-.08-2.71-.17-5.6-.24-8Zm3.82,0,.44.49c-.17.17-.28.35-.51.41a2,2,0,0,1-.65,0,1.44,1.44,0,0,1-1.15-.32l.14-.14a6.83,6.83,0,0,0,.83-.09,1.25,1.25,0,0,0,.55-.09,2.21,2.21,0,0,0,.29-.25Zm5.35,0a3.92,3.92,0,0,1,.95.3,1.43,1.43,0,0,1-.69.28,2.75,2.75,0,0,1-.81.14c-.69,0-1.31.09-1.73-.46a2.49,2.49,0,0,1,.64-.26Zm6.56,0c0,.07-.06.12-.13.12a.3.3,0,0,1-.23-.13Zm2.92,0c0,2.25,0,5.49,0,8h-1.14c0-3.18,0-6.31,0-8Zm4.7,0-.05,0c-.25.12-.47,0-.74,0s-.22.28-.41.28-.22,0-.28-.09,0-.13,0-.18l0-.07Zm4.78,0v.22c0,.15-.15.21-.28.26a1.23,1.23,0,0,1-.64.14c-.35,0-.52-.21-.78-.41l.33-.21Zm8.25,0c-.15,3-.3,6.32-.32,6.93,0,.18,0,.55,0,1.07h-.77c.07-2.18.15-5.65.18-8Zm1.33,0c-.1,2.63-.25,6.65-.32,7.16,0,.11,0,.41-.06.84h-.63c.16-3,.33-6.12.41-8Zm2.55,0c-.06,2.32-.15,5.34-.2,7.07,0,.25,0,.57,0,.93h-1.87c.06-1.43.11-2.68.11-3.32,0-1,0-2.88,0-4.68Zm-37.15,8,.09-.06a1.27,1.27,0,0,1,.55-.09,1.08,1.08,0,0,1,.44.15Zm1.86,0a4.25,4.25,0,0,1,1-.24,1,1,0,0,1,.73.24Zm3.61,0a3,3,0,0,1-.13-.29c.15,0,.22-.14.38-.14h.54c0,.17,0,.28,0,.43Zm2.73,0a.93.93,0,0,1-.38-.33c.45,0,.69,0,1.14,0,.2,0,.28.18.33.37l0,0Zm2.66,0-.37-.15a.86.86,0,0,1,.6-.23,2.3,2.3,0,0,1,1.34.38Zm6.72,0a.16.16,0,0,0,.05-.1h.18l-.23,0a6,6,0,0,1,.65,0l-.11.11Zm2.31,0-.46-.38a2.84,2.84,0,0,1,1-.18c.07,0,.1,0,.17,0a1,1,0,0,1-.44.52Zm3.4,0h0Zm4.85-1.48h.91c.16,0,.23.09.38.14a8.78,8.78,0,0,1,1.15.55c0,.06,0,.16,0,.18a1.51,1.51,0,0,1-.76.09,1.37,1.37,0,0,1-.58,0c-.14-.06-.23-.17-.37-.23a2,2,0,0,0-.6,0,3.16,3.16,0,0,1-.65-.18l0-.18c.14,0,.46-.22.6-.28Zm-1.93-.14c.18,0,.51-.07.69,0v.55c-.2,0-.3,0-.5,0a1.16,1.16,0,0,1-.56-.23,1.1,1.1,0,0,1,.37-.32Zm-2.4.23a8.11,8.11,0,0,1,1.06,0,1.17,1.17,0,0,1-.18.55c-.24-.08-.41,0-.65-.09s-.32-.08-.32-.23.07-.15.09-.23Zm-2.12.46a1.13,1.13,0,0,0,.51-.32c.06,0,.14,0,.18,0s0,.16,0,.18.23,0,.37,0a.64.64,0,0,1-.32.46c-.08,0-.09.14-.18.14-.31,0-.45-.29-.6-.55Zm5.3-1.84c.22,0,.5-.16.69-.09s.1.11.18.14c.36.1.59,0,1,0,.54.08.84.2,1.38.23a3.5,3.5,0,0,1,0,.78c-.16,0-.24,0-.4,0-.63,0-.93-.37-1.53-.55a3.81,3.81,0,0,0-1.29-.23v-.32Zm-1.75.37c0-.08-.06-.18,0-.23a1.1,1.1,0,0,1,.37-.18c.1,0,.16-.14.29-.14s.23,0,.38,0a3.4,3.4,0,0,0,0,.6l-.35,0-.69-.14Zm-2.12,0c.21,0,.32-.11.51-.18s.33-.12.55-.18l.09.18v.55h-.45c-.16,0-.23-.14-.38-.18s-.18-.17-.32-.18Zm-1.29-.18a1.73,1.73,0,0,1,.6,0v.55h-.6a1.75,1.75,0,0,1,0-.55Zm-2.07,1.1a1.73,1.73,0,0,1,.14-.51c.08-.1.23-.09.37-.14a1.33,1.33,0,0,1,.46-.14c.12,0,.15.1.23.18l0,.18-1.15.41Zm-2.07-1.29c.08,0,.1.09.18.09s.1-.09.18-.09a1.18,1.18,0,0,0,.88-.41.87.87,0,0,1,.46.6c-.46.11-.71.37-1.2.37-.08,0-.12-.08-.18-.09A1.64,1.64,0,0,1,224,149l.23-.28Zm-.23-1.15c.22-.13.38-.17.6-.28s.28-.28.51-.28.32.31.41.55a2.68,2.68,0,0,1-.74.18c-.07,0-.12.09-.2.09H224l0-.28Zm9.12,0a5,5,0,0,1,.7-.14c.21,0,.33,0,.54,0a1.91,1.91,0,0,0,.09.23c-.33.13-.52.32-.87.32s-.32-.26-.46-.46Zm-1.43,0c.31-.06.61-.17.78.09a1,1,0,0,1-.55.23c-.11,0-.14-.25-.23-.32Zm1.52-1.52a3.32,3.32,0,0,1,1.11-.09c.22,0,.46.14.46.37s0,.23,0,.37h-.32a4.65,4.65,0,0,1-1.2-.64Zm-1.47,0c.21,0,.29.18.46.28s.25.1.41.18a1,1,0,0,1-.61.22h-1.23c0-.46.51-.68,1-.68Zm4.15-1.1c.38,0,1,.13,1,.51,0,.11-.14.16-.14.28s.16.33.32.46a2.42,2.42,0,0,1-.23.37c0,.07-.18,0-.18.14,0,.39.28.6.64.78a1.49,1.49,0,0,1-.51.53h-2v-.3c.22-.1.33-.23.55-.32s.47-.1.74-.23c-.08-.36-.32-.51-.6-.74a.67.67,0,0,1,.37-.18c.14,0,.37,0,.37-.14,0-.37-.3-.53-.55-.78V145Zm-1.51.46a3.34,3.34,0,0,1-1.12-.14c-.16,0-.37,0-.42-.18a1.25,1.25,0,0,1,0-.36h2.07v.68Zm-4.16-.46a3.42,3.42,0,0,0,.51-.23s0-.13,0-.18a3.12,3.12,0,0,1,1.24.41v.41c-.74.06-1.15,0-1.89,0a2.86,2.86,0,0,1,.14-.41Zm6-1.38a1.77,1.77,0,0,1,.92.14c.35.18.37.53.37.92a2.26,2.26,0,0,1-1-.23c-.22-.13-.46-.24-.46-.51s0-.32.18-.32Zm-3.59,0c.63,0,1,0,1.61,0l.18.1c0,.06,0,.13,0,.18-.17.31-.5.32-.85.32s-.64-.3-.94-.6Zm-4.1,2.9c.14-.21.25-.41.51-.41s.36.14.55.23.13,0,.18,0,.11.11.18.18l0,.23c-.24,0-.39,0-.63,0a1.08,1.08,0,0,1-.75-.23Zm-.88.14.28-.14,0,.18-.14.18-.18,0v-.18Zm.69-1.43c0,.06,0,.29-.09.32a1.73,1.73,0,0,1-.37.14c-.22.09-.36.23-.6.23s-.17-.06-.28-.09a1.56,1.56,0,0,1,.74-.41,1.62,1.62,0,0,1,.6-.18Zm-1.57-1a2.55,2.55,0,0,1,1.27-.41.47.47,0,0,1,.48.46c0,.18-.21.24-.37.32a2.33,2.33,0,0,1-1.2.46c-.16,0-.13-.23-.18-.37s0-.32,0-.46Zm-2.72.64a5.67,5.67,0,0,1,1.7-.6c-.09.38-.41.52-.41.91,0,.22,0,.34,0,.56a2.12,2.12,0,0,1,.6,0c0,.08,0,.16,0,.23s-.14,0-.18.09-.23.21-.37.32-.17.32-.37.37a2.24,2.24,0,0,1-.39,0,1.12,1.12,0,0,1-.39,0c-.21-.09-.24-.28-.28-.51.24,0,.48,0,.6-.18s.12-.34.28-.46c-.07,0-.06-.17-.14-.18a3,3,0,0,0-.78,0c0-.16.16-.39.14-.55Zm-5.71,5.8c-.29,0-.4-.25-.69-.28s-.23,0-.37,0a.72.72,0,0,1-.41-.18c-.08-.06-.23-.1-.18-.18s.23-.15.37-.23h1.09c.22,0,.32.15.52.23a6.9,6.9,0,0,1,.92.46,6.21,6.21,0,0,1-.64,0c-.24,0-.36.14-.6.14Zm-3.5-.55-.18-.14a.57.57,0,0,1,.41-.23.91.91,0,0,1,.6.18l-.09.18Zm-1.11.14a2,2,0,0,1-.46-.09c-.14,0-.31,0-.37-.09s-.14-.07-.18-.14.15-.06.23-.09a1.24,1.24,0,0,1,.51-.09,1,1,0,0,1,.51.14c-.06.14-.07.37-.23.37Zm-4.28.18c.23-.21.3-.41.6-.46s.18-.28.37-.28.14.14.23.18a3,3,0,0,0,.92.14,3.08,3.08,0,0,1-.55.28c-.18.08-.27.23-.47.23h-.91l-.18-.09Zm-1-.74a.53.53,0,0,1,.51.54v.61h-.36c-.24,0-.36-.17-.56-.28s-.46-.14-.46-.37a.36.36,0,0,1,.23-.37c.17,0,.29,0,.46,0s.1-.09.18-.09Zm-2.81-1.84h.22a.73.73,0,0,0,.47-.09c.06,0,0-.15.09-.18a.69.69,0,0,1,.28,0c.4,0,.36.56.65.83.1.09.27,0,.37.14s0,.17,0,.28-.24.15-.37.23-.06.12-.09.18,0,.31,0,.51a3.19,3.19,0,0,0-1.24-.55l0-.18c.12-.23.25-.32.37-.55-.3-.09-.56-.1-.74-.37,0,0,0-.12,0-.18Zm3.36-.41a2.36,2.36,0,0,1,1.06,0v.28a.92.92,0,0,0-.69.23l.18.09h1a.64.64,0,0,1,.56.23,2.54,2.54,0,0,1-1.54.6,1.23,1.23,0,0,1-.85-.37c.25-.1.6-.09.6-.37s-.24-.29-.41-.41.18-.22.14-.28Zm1.93-.13a7.18,7.18,0,0,0,.86,0,.55.55,0,0,1,.52.41c0,.13,0,.24,0,.37s.11.13.18.18a.91.91,0,0,1,.41.55h-1c-.21,0-.23-.25-.33-.41s-.14-.07-.18-.14a3.87,3.87,0,0,1-.46-1Zm2.76.59-.37-.18.09-.18.6-.14h.37c0,.2,0,.31,0,.51Zm4.33.41c.21-.15.3-.37.56-.37h.5a5,5,0,0,1,0,1.24c-.2,0-.31,0-.51,0s-.15-.12-.23-.18a.82.82,0,0,1-.32-.74Zm-2.67-1.66a.68.68,0,0,1,.74-.46,1,1,0,0,1,.92.37s0,.13,0,.18a1.59,1.59,0,0,0-.46.41l0,.18a1.81,1.81,0,0,1,.78.37c-.17.17-.36.23-.46.46s0,.51,0,.83h-1c-.17,0-.26-.1-.43-.14s-.46-.07-.46-.28c0-.38.58-.29.78-.6s0-.41.14-.55.4-.14.6-.28l0-.18c-.43-.14-.69-.15-1.11-.32Zm-2.3-.32c.22-.08.36-.41.6-.41a1.72,1.72,0,0,1,.92.23c.06,0,0,.13,0,.18-.36.17-.45.51-.83.51s-.53-.23-.74-.51Zm-1.8-.09c.36,0,.79-.22,1.11,0a.27.27,0,0,1,.18.23c0,.18,0,.41-.23.41s-.3-.14-.46-.23a6.34,6.34,0,0,1-.6-.37Zm-2.3.18c.2-.08.38-.32.6-.32a1.09,1.09,0,0,1,.55.18,1,1,0,0,1-.14.37c-.12.14-.28.09-.46.09s-.38-.15-.55-.32Zm7.92-.83a4.59,4.59,0,0,0,.88-.18c.07,0,.1-.09.18-.09.47,0,.68.25,1.11.46,0,.06-.18,0-.18.09a1.5,1.5,0,0,0,.23.64.63.63,0,0,0,.37.41l-.14.18a5.42,5.42,0,0,1-1.43,0,1.1,1.1,0,0,0,0-.55c0-.06-.16,0-.18,0s.08-.39,0-.55-.24-.08-.37-.14a2.45,2.45,0,0,1-.37-.23Zm-2.44-.18a1.24,1.24,0,0,1,0-.37c.08-.18.3-.18.51-.18s.52-.09.74.09.26.32.46.46a2,2,0,0,0-.09.23,9.15,9.15,0,0,1-1,.09c-.13,0-.23,0-.32,0s.06-.16,0-.18a1.88,1.88,0,0,0-.37-.09Zm-3-.23a1,1,0,0,1,.41-.37c.12-.07.18-.18.32-.18s.38.16.65.18.24,0,.37,0,.14.16.14.28c0,.38-.5.46-.88.46a1.27,1.27,0,0,1-1-.37Zm-2,.46-.32-.28a1.2,1.2,0,0,1,.32-.28c.08,0,.09-.14.18-.14a1.12,1.12,0,0,1,.55.23c-.18.18-.25.46-.52.46a1.41,1.41,0,0,0-.22,0Zm-2.76-.6H207c.08,0,.13-.08.2-.09a1.3,1.3,0,0,0,.37,0c.09,0,.12-.18.23-.18.29,0,.39.26.6.46a2.08,2.08,0,0,1,.28.28c-.35.17-.61.14-.92.37,0,0,0,.13,0,.18.14.08.24.1.37.18s0,.13,0,.18,0,.15-.09.18a2.69,2.69,0,0,1-.74.28,2.89,2.89,0,0,1-1,.28,1.1,1.1,0,0,1-.83-.41c.14-.07.22-.18.38-.18h.9c.16,0,.24-.12.38-.18s.41-.18.41-.41-.24-.2-.41-.28-.29-.43-.46-.6Zm10.5-.74a4.39,4.39,0,0,0,.69-.18c.1,0,.12-.18.23-.18a1.28,1.28,0,0,1,.6.23,1.29,1.29,0,0,1,.65.51c-.14.07-.22.18-.38.18h-1.09a3.57,3.57,0,0,0-.69-.55Zm-1.43.23c-.13,0-.22.06-.32,0s-.07-.14-.14-.18-.29-.09-.32-.23.32-.39.6-.46.36,0,.55,0,.28.3.41.51c0,.06,0,.15-.09.18a1.19,1.19,0,0,1-.69.14Zm-7.28-.58c0-.06,0-.18.09-.21a1.06,1.06,0,0,1,1,.21c-.15.13-.25.25-.46.25a1.25,1.25,0,0,1-.65-.25Z"/><path class="cls-4" d="M199.08,143.59a9.91,9.91,0,0,1,.36-2.13c.16-.24,1.79-2.25,1.79-2.25a7.13,7.13,0,0,0,0-1,1.83,1.83,0,0,1,.35-1.19,3.82,3.82,0,0,1,.75-.38s0-.74.09-1.1.14-.69.41-.74a26.68,26.68,0,0,1,3.41.28c1.43.18,6.73-.46,9.12-.28s5.21,1.2,6.22,2.16c.46-.74,2.63-1.61,4.51-1.79s5.39.32,7.37.37,5.23-.18,5.67-.21.81-.14.92.67.18.41.74,1,.37.74.55,1.1.64.55,1.29,1.1,1.11.74,1.11,1.29c0,.23,0,1.51-.08,3.15h-2a33.5,33.5,0,0,0-.12-4c-.18-.51-.32,1.1-.37,1.75,0,.2,0,1.1-.1,2.27h-.6c0-.87.06-1.49.05-1.72,0-1.33,0-3.54,0-3.77s-.42-.69-.51.28c0,.44-.16,2.73-.28,5.22h-.93c0-1.12,0-2,0-2.36,0-1.52.23-4.83.14-5.06s-2.72.14-3.92.14-3.87-.09-5-.14-4.05-.09-5,0a4.9,4.9,0,0,0-2.9,1.84s-.18,2.21-.14,3c0,.21,0,1.24,0,2.64h-1.19c0-.62,0-1,0-1.21,0-1.33.09-3.87-.37-4.6s-2.07-1.43-3.18-1.79a35.42,35.42,0,0,0-6.73-.41c-2,0-6.59.14-6.82.14,0,0-.23.14-.32,1.1s0,3.4,0,5.2c0,.31,0,.87,0,1.58h-1l-.16-5.45a1.76,1.76,0,0,0-.32,1.1c0,.39,0,2.24,0,4.34h-.77c0-.15,0-.23,0-.25,0-.18-.23-.19-.35.25Zm8.09,0,0,0,0,0Zm3.76,0,.24,0h1l.36,0Zm7.84,0-.1-.11a1.08,1.08,0,0,1,.32-.32l.32.09c0,.08-.1.1-.14.18s0,.1-.05.16Zm6.45,0c-.15-.24-.28-.41-.46-.66s-.14-.25-.28-.32-.36,0-.55-.09,0-.26,0-.32a1,1,0,0,1,.83-.28,2,2,0,0,1,.37,0c.17,0,.16.24.28.37a1.37,1.37,0,0,0,.51.41c.45.21.88.18,1.11.64a3.08,3.08,0,0,1-.27.25Zm4.94,0a.87.87,0,0,1,.42-.11h1v.11Zm3.5-3a1.09,1.09,0,0,0,.63.27c.43.05.37.48-.71.56s-.59-.16-1.33-.21-1-.16-1.17-.35,2.29-.27,2.58-.27Zm2.89,1.71.83-.09a3.55,3.55,0,0,1-.28.55,1.56,1.56,0,0,1-.55-.28s0-.13,0-.18Zm-2.81-.09.37-.09h1.57l.09-.18.18,0c0,.31,0,.63-.28.74a3,3,0,0,1-.55,0c-.43.08-.62.37-1.06.37-.13,0-.16-.14-.23-.23s-.23-.21-.23-.37.09-.15.14-.23Zm-1.94-.09c.07.07.17.32.28.32s.31-.09.51-.09.15.07.23.09a4.4,4.4,0,0,0-.46.74.65.65,0,0,1-.46-.32c-.09-.16-.23-.26-.23-.46s.09-.18.14-.28Zm-1.11.09c0,.22.08.52.07.74h-.38c-.18,0-.25-.13-.43-.18a1.74,1.74,0,0,1-.37-.14s0-.13,0-.18a4,4,0,0,1,1.15-.23Zm-1.16-1.38c.2,0,.39.13.38.32s-.2.22-.37.28a2,2,0,0,1-.64-.09c-.08,0-.07-.13-.14-.18a1,1,0,0,1,.77-.32Zm-3,.55c0-.24.31-.28.55-.28a1.31,1.31,0,0,1,.55.14.62.62,0,0,1-.55.46c-.24,0-.55-.08-.55-.32Zm1.52,1.24.51-.09.09.18,0,.18a3.51,3.51,0,0,1-.55-.28Zm9-2.95c.18.25.48.43.55.74a6.75,6.75,0,0,0-.69-.18,3.86,3.86,0,0,1-.83-.09c-.08,0,0-.16,0-.23a3.11,3.11,0,0,1,1-.23Zm-2.63-.09a1.41,1.41,0,0,1,1.06.37.73.73,0,0,1-.55.32,1.63,1.63,0,0,1-1.11-.32c.2-.2.32-.37.6-.37Zm-1.93-.14c0,.1.28.3.28.41a.33.33,0,0,1-.32.32c-.09,0-.1-.12-.18-.14s-.23-.06-.37-.09l0-.18a.74.74,0,0,1,.65-.32Zm-3.64.28s0-.16.09-.18.13,0,.18,0a2.12,2.12,0,0,1,1.31,0,2.17,2.17,0,0,0,0,.55h-.38c-.13,0-.21,0-.33,0-.32,0-.56.07-.83-.09-.06,0,0-.13,0-.18Zm-2.57.18a3.48,3.48,0,0,1,1.09,0c0,.15,0,.3-.09.41a.5.5,0,0,1-.43.14,5.13,5.13,0,0,0-.59,0v-.55Zm-2.31.69c.28,0,.37-.32.64-.32s.4.22.6.41a1.28,1.28,0,0,1-1,.46c-.23,0-.33-.2-.41-.41l.14-.14Zm12.67-2.3a6.06,6.06,0,0,1,.64.41c-.14.29-.23.64-.55.64s-.29-.12-.46-.18a1.08,1.08,0,0,1-.46-.32c.31-.22.44-.49.83-.55Zm-3.27,0a3.31,3.31,0,0,1,1,0c.24.07.37.2.6.28v.32h-1.52l-.28-.37.18-.28Zm-4.15-.28.09.74-.46,0-.18-.09a1.81,1.81,0,0,1,.55-.69Zm-1.84.46c-.17.15-.28.51-.51.51a1.48,1.48,0,0,1-.32-.09,1.89,1.89,0,0,1,.83-.41Zm-3.18,1a2.73,2.73,0,0,1,.64-.55c.16-.11.25-.28.46-.28s.51.13.51.37-.17.22-.32.28a1.68,1.68,0,0,1-.7.18Zm-9.08-2a3.29,3.29,0,0,1,1.43.19,5.93,5.93,0,0,0,.74.32,2,2,0,0,1,.46.18c.09.06.23.07.23.18s0,.37-.18.37-.48-.17-.78-.23a10.16,10.16,0,0,0-1.2,0c-.77-.06-1.53,0-1.89-.64l1.16-.32c-.21,0,0,0,0,0Zm1.39,5.41a.6.6,0,0,1,.74-.28c.07,0,0,.16.09.18a1.74,1.74,0,0,0,.55.09.7.7,0,0,1-.18.37c-.06,0,0,.18-.14.18s-.35-.14-.55-.23a1.79,1.79,0,0,1-.51-.32Zm-1.2.14a3.07,3.07,0,0,1-.92-.14c-.21-.07-.41-.18-.41-.41s.17,0,.28,0a4.51,4.51,0,0,1,.55,0c.24,0,.55.08.55.32a2.36,2.36,0,0,1,0,.28ZM210,143a.83.83,0,0,1-.23-.18c-.08-.08-.32-.16-.23-.23s.18.07.23,0a.41.41,0,0,1,.37-.18c.15,0,.23.08.37.14a.7.7,0,0,1-.51.46Zm-2.53,0a.59.59,0,0,1,.6-.46c.25,0,.55.11.55.37s-.08.41-.28.41c-.36,0-.55-.2-.88-.32Zm-1.75.37c-.26,0-.43-.24-.46-.51a3,3,0,0,0,1,0c.18,0,.18-.28.37-.28a.85.85,0,0,1,.55.23s0,.13,0,.18c-.37.09-.6.11-1,.18-.2,0-.3.18-.51.18Zm13.13-1a3.3,3.3,0,0,1-1-.28.6.6,0,0,1-.41-.23c-.09-.15.14-.37.32-.37s.39.24.64.32.47-.1.74,0c.1,0,.14.16.14.28s-.25.28-.46.28Zm-2.43-.37a1.22,1.22,0,0,1-1.12-.41c0-.07-.15-.06-.18-.14s.14-.1.18-.18,0-.13,0-.18.14,0,.18,0a5.49,5.49,0,0,1,.88.28c.17.07.37.14.37.33s0,.22,0,.36Zm-2.08-.09c-.16,0-.25-.13-.37-.23s-.18,0-.18-.14a.26.26,0,0,1,.23-.28,3.11,3.11,0,0,1,.78.18,1.92,1.92,0,0,0-.09.37,1.33,1.33,0,0,1-.37.09Zm-2.67-.46c.25-.06.47-.28.74-.28a1.39,1.39,0,0,1,.74.23c-.1.14-.13.29-.28.37s-.41.12-.41.32.44.39.78.41l-.09.18a4.19,4.19,0,0,1-1.43-.14c-.07,0,0-.13-.09-.18l.55-.32a2.8,2.8,0,0,1-.51-.6Zm-1.7.32c0-.06,0-.13,0-.18a.53.53,0,0,1,.51-.37,1.31,1.31,0,0,1,.37,0c.1,0,.23.07.23.18,0,.29-.31.41-.6.41a2.45,2.45,0,0,1-.51-.09Zm-4.65-.32h.86a2.81,2.81,0,0,0,1.12-.09l1.52-.14a2.27,2.27,0,0,1,0,.28c0,.23-.3.25-.51.32a2.14,2.14,0,0,1-.55.14,9.09,9.09,0,0,1-1.12,0,4.8,4.8,0,0,1-.91,0,1.29,1.29,0,0,0-.55,0l.09-.53Zm13.36-1.06a4.73,4.73,0,0,1,.69.09c0,.2-.08.41-.28.41a1.34,1.34,0,0,1-.46-.14c0-.14,0-.23,0-.37Zm-2.53,0a.69.69,0,0,1,.14-.37c.12-.11.27.13.41.18a.79.79,0,0,0,.29,0,5.82,5.82,0,0,1,1,0v.41l-.09.18a5.67,5.67,0,0,0-.55-.23,5.22,5.22,0,0,0-.6,0,2.25,2.25,0,0,1-.6-.23Zm-1.93-.23c.15-.2.25-.41.51-.41s.36.18.51.37c-.12.12-.16.28-.32.28a1.49,1.49,0,0,1-.69-.23Zm-2,.32c-.24-.09-.55-.15-.55-.41,0-.1.09-.14.18-.18a1.47,1.47,0,0,1,.55-.09c.11,0,.16-.09.28-.09a.71.71,0,0,1,.55.37c0,.06,0,.15-.09.18a2.27,2.27,0,0,1-.92.23Zm-5.16-.87c.08,0,.12.08.18.09a3,3,0,0,0,.78.09c.54,0,.85-.14,1.39-.14s.69,0,1.14,0v.59a4,4,0,0,1-1.2.32,6.64,6.64,0,0,1-1.47.32,4,4,0,0,1-.74-.18c-.41-.07-.92-.17-.92-.6.32-.33.52-.51.83-.51Zm5.25-2.07c.08,0,.1-.09.18-.09s.15.07.23.09.09.22.09.37-.13.08-.18.14-.36.1-.6.14a1,1,0,0,1-.28-.32c0-.11-.1-.26,0-.32s.33,0,.55,0Zm-4.1.78c-.37,0-.56-.26-.78-.55.35-.21.47-.55.88-.55.7,0,1.08.28,1.79.28a6.8,6.8,0,0,1,.84,0c-.09.28-.17.6-.47.6h-.85c-.55,0-.84.23-1.39.23Z"/><path class="cls-5" d="M128.8,156.74a.38.38,0,0,1-.18.1.58.58,0,0,1-.62-.1Zm11.39,0c-1.3,2.17-3.36,5.49-3.89,6.27-.72,1.06-1.73,2.37-1.34,2.33.61-.06,4.51-1.17,5.29-1.39a10.16,10.16,0,0,0,3.17-1.06,2.8,2.8,0,0,0,.78-2.22c0-.44.5-.5.83-.5s.61,1.56.89,2.61a24.19,24.19,0,0,1,.83,2.67.74.74,0,0,1-1.28.17,2,2,0,0,0-1.78-.83c-.78,0-4.17,1-6.56,1.61s-3.89,1.06-4.28,1.5-.22,1.17-.22,1.5c0,0-.56,1.17-1.11.11a17.94,17.94,0,0,1-1.11-3.61,1.38,1.38,0,0,1,.06-1.17c.22-.33,1.89-2.67,3.34-4.83.64-1,1.38-2.11,2-3.16Zm161.44,0q0,.31,0,.63a9.3,9.3,0,0,0,1.52,4.74c.6,1,1.2,1.61.83,2.12s-1.38-.51-2.07-1.15-2.72-2.39-2.9-2.67.18-.69.6-.55.78.23,1.06-.14a11.66,11.66,0,0,0-.21-3Zm14.53,0a10.16,10.16,0,0,1-.93,3,12.32,12.32,0,0,1-1.75,2.71c-.41.64-.32.87.09,1.06s.92.14.92.51-.37.46-.83.41-2.41.1-3.36,0c-.6-.09-1.29.23-1.15-.55s1-.69,2.49-1.52,2.53-2.48,2.63-5.2c0-.14,0-.27,0-.4Zm-69.43,60.17c.6-.23,5.39-2.16,6-2.44s1-.28,1.11.14-.14.78-.64,1.15a1.15,1.15,0,0,0-.6,1.33c.14.64,1.15,3.54,1.61,5s1.61,5.06,1.75,5.43.55.74,1.38.6,1.06,0,1.2.32-.14.74-.83,1-5.07,1.89-5.58,2.07-.92.18-1-.23.46-.83.88-1.2.37-.69-.18-2.39-1.66-4.28-2.26-6.53-1-3.27-1.8-3.17-1.38.18-1.61-.14,0-.74.55-1Zm17.78-6.58c-.09.28.14.51.64,1.43s4.7,8.65,4.93,9.16.51.64.74.51a23.19,23.19,0,0,0,2.4-1.52,8.24,8.24,0,0,0,3.36-5.75A7,7,0,0,0,273,208c-2.44-1.52-4.33-.74-6.08.23a5.34,5.34,0,0,0-2.44,2.12Zm-5.67,1.15c.78-.41,5.39-3.36,8-4.92s5.71-2.39,7.83-1.89a8.36,8.36,0,0,1,5,4.6c.65,1.75,1.52,4.19-.55,7.13s-12.25,9.11-13,9.29-.92-.83-.46-1.1a1.33,1.33,0,0,0,.55-2.07c-.69-1.29-4.61-8.33-4.88-9s-.65-1-1.38-.83-1.57.37-1.8-.14.74-1.06.74-1.06Zm-122.18-29a.7.7,0,0,1,.9.12c.21.21.44.94,1,.76s5.53-2.58,6.73-3.08a8.18,8.18,0,0,0,2.88-1.91,3.44,3.44,0,0,0,.23-3.75c-.71-1.63-1.07-2.36-2.44-2.94-1.17-.51-2.18,0-3.24.32s-6.35,2.19-6.81,2.38a1.72,1.72,0,0,0-.81,1.22c0,.34,0,1.06,0,1.27a.53.53,0,0,1-.62.3c-.21-.09-.18,0-.53-.83s-1.34-3.24-1.47-3.68.14-.76.3-.76a.85.85,0,0,1,.76.39,1.12,1.12,0,0,0,1,.67,7.53,7.53,0,0,0,2.35-.69c1.27-.44,4.95-1.69,6.24-2a5.58,5.58,0,0,1,3.62-.06c1.06.46,2.68,2.44,3.48,4.48a11.91,11.91,0,0,1,.94,4.65,3.38,3.38,0,0,1-2,3.08c-1.64,1-7.72,4-8.18,4.19a1.52,1.52,0,0,0-.83,1.26c0,.39.35.9,0,1.13s-.64.18-.94-.3-1.11-2.09-1.54-3-1.06-2-1.15-2.25-.23-.64,0-.87Zm166-10.4c-.28-.09-.6.83-.83,1.47s-.71,1.66-.92,2.39c-.28,1,0,.87.18.87l4.75-.09c.51,0,1,0,.92-.32a23.56,23.56,0,0,0-2.58-2.85,11.93,11.93,0,0,0-1.52-1.47Zm-10.41,9.16a1.71,1.71,0,0,0-.88,1c-.18.32-.74.83-1.24.6s-.18-.87,0-1.24.64-1.2,1.29-2.3,1.52-3.13,2-3.91,1-.51,1-.18a10.06,10.06,0,0,0,0,1.24c0,.46.23.6.64.6a11,11,0,0,0,3.46-.32c.28-.37,2.12-5.11,2.49-6.3a25.11,25.11,0,0,0-1.75-2.07c-.51-.41-1-.41-1.2-.14s-.51.92-.88.83-.46-.37-.32-.87.88-2.94,1.2-3.73.6-1.15,1-.92.14.51.14.92a2.06,2.06,0,0,0,.65,1.47c.51.51,5.39,5.75,6.77,7.36s1.47,1.61,2.07,1.75.69-.92,1.15-1.47,1.11,0,.88.74-1.61,4.46-2,5.48-1.38,1-2,1-9.54,0-10.78.14a18.2,18.2,0,0,0-3.69.37Zm-4.52,21.58a.94.94,0,0,0-1.11-.32c-.42.14-2.35.92-2.76,1.15s-.83-.32-.55-.69a22.13,22.13,0,0,0,1.52-2.62c.28-.64-.14-.87-.83-1.1a22.69,22.69,0,0,1-2.72-1c-.46-.28,0-.69.46-.92s2.26-.83,2.72-1.06.18-.64,0-1.29a19.33,19.33,0,0,0-1.2-2.39c-.28-.55.32-.74.64-.64s1.94.92,2.76,1.29,1.15.09,1.15-.18.6-2.16.69-2.85.74-.87.92-.46,1,2.35,1.29,3a.78.78,0,0,0,1.29.37c.46-.32,1.61-1.06,2.4-1.52s.92,0,.78.41-1.15,2.16-1.34,2.76-.18.83.18,1.06,2,.83,2.72,1.15.6.92.18,1-3.09.78-3.27,1.1.14,1.2,1,2.3,0,1.24-.23,1.2-1.66-.69-2.44-1-1,.09-1.15.41a21.42,21.42,0,0,0-.87,2.94c-.18.83-.78.69-1,.32s-1.11-2.16-1.24-2.48ZM147.45,191.88c.32-.18.51-.6.37-1.56a14.32,14.32,0,0,1-.23-2.35c0-.37.09-.55.83,0s1.84,1.47,2.26,1.66.83.18,1.29-.74,1-1.84,1.15-2.12.6-.51.92.37,1,2.35,1.06,2.71.28.51.69.46,2.17-.37,2.67-.41,1.11-.14.78.46-1.52,2.12-1.66,2.39-.32.64.28,1.06a22.35,22.35,0,0,0,2,1.06c.41.23.46.83-.28,1s-2.21.51-2.53.64-.32.69-.18,1.24.74,2.58.74,3-.32.78-.69.51-2.3-1.79-2.63-1.93-.51,0-.78.46-.69,1.75-1.06,2.48-.92.83-1.24.14-1-2.71-1.11-3a.92.92,0,0,0-1-.55c-.41.09-2.35.64-2.72.74a.46.46,0,0,1-.51-.69c.23-.41,1.38-2.53,1.47-2.9s.32-.6-1-1.15a12.88,12.88,0,0,1-2.3-1.2c-.37-.23-.09-.55.6-.78s2.44-.74,2.76-.92ZM153.76,208a.63.63,0,0,1,.14-.92c.32-.23.64.28,1.2.6s1.24-.14,1.8-.64,3.27-3.4,4.19-4.32,2.63-2.44,3-3.31.23-1,0-1.38-.55-1-.23-1.24a.69.69,0,0,1,.88,0c.32.18,2.9,3.17,3.32,3.5a2.06,2.06,0,0,1,.74,1.38c0,.41-.88,5.84-.92,7s.32,1.15,1,.92,4.52-1.66,6.13-2.25,2.07,0,2.95.55,2.58,1.66,3,2,.51.78.14.83-1.29-.37-1.75-.28-1.34,1.84-1.84,2.67-4.24,6.81-4.47,7.27-.51,1.1,0,1.52.74.69.55,1.06-1,0-1.7-.41-3.41-2.12-3.82-2.35-.83-.69-.78-1,.55-.6,1.29-.28,1.11-.41,2-2,3.78-6.07,4-6.44,0-.64-.51-.6-6.54,2.3-7.79,2.58a11.37,11.37,0,0,1-2.53.51c-.32-.09-.36-.47-.23-1.24.23-1.38,1.2-9.75,1.2-9.75s-6.36,6.67-6.73,7.09a1.19,1.19,0,0,0-.09,1.33c.18.37.51.74.32.92a.51.51,0,0,1-.83,0c-.41-.37-3.36-3.08-3.59-3.36Zm32.3,14.22c1,.41,3.5,1.66,4.24,1.89s1.29.14,1.06-.74-.65-4.83-1-5.47-.69-.41-1.15,0-2.81,2.53-3.32,2.85-.83,1.06.14,1.47Zm1.61-9.11a50.52,50.52,0,0,1,4.79,2.21c1,.46,1.61.74,1.8,2.07s.92,4.51,1.15,6.53.83,5.57,1.11,6.58a2.24,2.24,0,0,0,1.43,1.75c.88.46.65,1.56-.09,1.33s-2.44-.6-3.69-1.06-2.17-.74-2.72-1-.55-.83-.09-.87a.91.91,0,0,0,.92-1c0-.69-.37-3.13-.37-3.13s-3.09-1-4.38-1.66a21.73,21.73,0,0,0-4.1-1.7c-.51,0-1.7,1.2-2,1.43s-.64.55-.64.87a1.08,1.08,0,0,0,.64.87c.41.23.37,1,0,1.06A2.84,2.84,0,0,1,180,227a35,35,0,0,1-3.5-1.84.49.49,0,0,1,.28-.83c.37,0,1.47.78,2.3,0s7.79-6.95,8.71-7.78,1.43-1,.41-1.66-1.34-.51-1.52-.83-.14-1.29,1-1Zm23.59,8.47c-.6,0-.83.69-.87,1.38s-1.29,7.64-1.47,8.93-.51,2.53-.23,2.76,1.66.46,3.82.41a5.94,5.94,0,0,0,4.61-1.84c1.38-1.29,2-3.82,1.75-6.86s-2.07-4.19-3.18-4.42a28,28,0,0,0-4.42-.37Zm-5-2.3c.51,0,.41.18,4.38.6s6.4.74,8.25,1.43a6.75,6.75,0,0,1,4.38,5.66c.51,3.36-.65,6.4-2.86,7.91s-4.93,1.84-8.57,1.38-7.28-1-8.15-1.2-1.2-1.1-.6-1.29.78,0,1.2-.14.51-1.06.92-3.77,1.47-8,1.47-8.42a.89.89,0,0,0-.78-.92.79.79,0,0,1-.65-.83c0-.28.51-.41,1-.41Zm23.36,2.53.18,2.71c.09,1.33.32,3.87.32,3.87a27.07,27.07,0,0,0,5.53-.69c2.12-.69,3.27-2.48,3.13-3.68a3.73,3.73,0,0,0-3.5-2.95,52,52,0,0,0-5.67.74Zm-4.52-1.06c.78-.09,7.92-.87,9.31-1.1s5.07-.78,6.54.46a3.85,3.85,0,0,1,.69,5.52c-1.61,2.07-5.16,3.17-5.16,3.17a10.32,10.32,0,0,1,2.53.55c1,.41,3.59,1.47,4.28,1.75a5.46,5.46,0,0,0,2.86.32c.78-.23,1.61-.14,1.15.41a5.84,5.84,0,0,1-3.32,2.07,8.87,8.87,0,0,1-5-.14,44.63,44.63,0,0,1-5.62-3.13,5.31,5.31,0,0,0-2.44-.6c-.83,0-.55.41-.6,1a11.9,11.9,0,0,0,.14,3.13,1.51,1.51,0,0,0,1.24.83c.41.09.64.64.41.87a6.87,6.87,0,0,1-2.58.37,40,40,0,0,1-4.05.28c-.46-.14-.69-.74-.32-.92s1.24,0,1.34-.55-.14-5-.23-7.64,0-4.92-.65-5.15-.87,0-1.24-.23-.37-1-.09-1.1a3,3,0,0,1,.83-.18Z"/><path class="cls-5" d="M143.92,100.74c-.1.43-.18.79-.21,1-.11.72-1.06.5-1.06.22a1.75,1.75,0,0,0-.18-1.21Zm158.92,0a5.26,5.26,0,0,0-.55,3.58c.28,2.48,3.55,4.37,4.47,4.92s1.43.87,1.34,1.33-.6.37-1.24.28-3.41-.51-3.87-.55-.88-.32-.88-.64.32-.37.6-.46.6-.32.14-.92-1-1.15-2.07-4.51a8.74,8.74,0,0,1-.43-3Zm13.87,0a9.84,9.84,0,0,1-.46,4.64c-.28.83-.6,1.89-.09,2.07s1.06.14,1.34.46a.51.51,0,0,1-.32.83c-.37,0-3.32.32-3.92.37s-1-.37-.87-.78,1-.87,1.52-1.38a5.62,5.62,0,0,0,1.57-4,8.6,8.6,0,0,0-.43-2.2Zm-188.7,56a1.6,1.6,0,0,1-.33-.73,34.41,34.41,0,0,1-.56-3.78c-.06-.72.72-.83.89-.33s.11,1.28.95,1.17,3.45-.67,5.12-1a36.3,36.3,0,0,0,5.45-1.28,4.16,4.16,0,0,0,1.72-1.67c.33-.56,1-.89,1.17-.17a12,12,0,0,1-.11,3.45A10.33,10.33,0,0,1,141.2,155c-.16.31-.53.95-1,1.73h-4.36c.84-1.34,1.54-2.5,1.69-2.85.28-.61.22-.89-.83-.72s-6.57,1.44-7.12,1.5a.77.77,0,0,0-.67.94c0,.33.13.88-.1,1.12Zm172.46,0a8.22,8.22,0,0,1,0-1.85,9.3,9.3,0,0,1,2.17-4.92,7.57,7.57,0,0,1,7.19-2.76,7.24,7.24,0,0,1,6.13,5.11,9.75,9.75,0,0,1,.24,4.43h-1.89c-.06-2.4-1.4-3.24-2.49-4.29s-5-2-7.23-.74a5.53,5.53,0,0,0-2.92,5ZM128.24,143.12c1.06,0,4.12-.5,5.56-.61s3.89-.42,5.28-.5c1-.06,1.06-.56,1.11-1.22s.33-.89.61-.89.5.56.56,1.06.44,3.56.5,4.33.22,1.39-.28,1.5-.39-.94-1.06-1.22-.95-.11-2.95.06-7.23.89-8.29.94-1.61.39-1.72.89-.11,1.11-.61,1.22-.72-.06-.83-1.06-.5-4.11-.5-4.67.11-1.06.39-1.06.56.06.67.61.5.61,1.56.61Zm-2.56-2.89c-.61.17-.67-1.22-.67-2.06s-.17-3.78-.22-4.61.67-.78.89-.44.22,1.11.72,1.11,2.61-1.5,4.4-2.67,4.45-3.06,4.45-3.06-2.39-1.56-4.17-2.44-3.28-2-4.34-2.06-1.11,1-1.45,1a.61.61,0,0,1-.56-.61c0-.28.06-2.94.17-3.61s.06-1.33.45-1.33.44.5.89,1.11,2,1.44,4.73,2.83,7.34,3.83,8.85,4.67.89,1.33.61,1.67a30.34,30.34,0,0,1-3,2c-1.11.72-8.85,5.44-9.68,6s-1.39.83-1.45,1.5,0,.83-.61,1Zm-.06-21.56a1.12,1.12,0,0,1-.44-1.28c.17-.72.5-4.89.67-6.28s.61-4.78.78-5.72.28-1.39.67-1.67a15.46,15.46,0,0,1,3.51-1.33c.95-.17.22.83-.5,1.39a8.55,8.55,0,0,0-2.61,4.28,44.47,44.47,0,0,0-.78,5.28l5.12.5a5.85,5.85,0,0,0-.22-1.94,3.06,3.06,0,0,0-1.61-1.5c-.72-.28-.95-.33-.89-.72s.61-.39,1.22-.39,5.45.61,6.12.67,1.06.22,1.06.67-.67.61-1.39.61a2.1,2.1,0,0,0-1.95,1.06,2.62,2.62,0,0,0-.39,1.89l6.12.44a21.59,21.59,0,0,0,.56-3.22,15.08,15.08,0,0,0-.06-3.95,6.38,6.38,0,0,0-1.11-2.39c-.22-.5-1.11-1.44-.89-1.67a1,1,0,0,1,1.28.17,32,32,0,0,1,2.84,2.28c-.17.94-.95,6.44-1,7.89s-.72,5-.72,5.5-.22,1-.61.94-.45-.28-.5-.67a1.35,1.35,0,0,0-.5-1,22.25,22.25,0,0,0-4.23-.56c-1.5-.11-6.29-.56-7.12-.61s-1.45-.11-1.67.17-.17,1.22-.72,1.17ZM303,113.44a.64.64,0,0,1,.6-.6c.37,0,.6,1.1,1,1.38s2,.09,4.05-.09,7-.41,7.74-.87.28-1,.74-1.52,1,.09,1,.69.23,3.22.23,4.14a2.66,2.66,0,0,1-1.06,2c-.55.55-8.16,7.45-9,8.28s-1.29,1.52-1,1.66a76.46,76.46,0,0,0,9.72,0c.92-.28.74-1.24,1-1.56a.43.43,0,0,1,.74.23c0,.28,0,2.07,0,3s.18,2.07-.42,2.12-.69-.83-.87-1.43-.78-.41-1.57-.41-9.91-.18-10.37,0-.69.92-.78,1.2-.46.83-.74.55-.32-1.33-.09-3.5a10.46,10.46,0,0,1,2.81-5.71c1.2-1.15,6.68-6.12,7.23-6.58s.14-.46-.92-.46-6.91.32-7.6.41-.92.37-1,.87-.41.92-.83.92-.42-1-.42-1.61-.28-2.81-.23-3.08Zm1.34,29.31c-.41.51-.14.32-.37.69s-.37.6-.78.6-.51-.37-.42-1.15.46-3.77.6-4.78.14-1.24.78-1.24.28,1.33.69,1.61a8.19,8.19,0,0,0,3.36.6c1.47,0,6.36.55,7.74.64s1.2-.41,1.61-.87,1.15-.28,1.15.28-.32,4.33-.42,5.11-.51,1.15-.92,1.15-.55-.64-.64-1.15-.23-.83-1.34-1-6.08-.69-7.51-.69-3.13-.32-3.55.18Z"/><path class="cls-5" d="M142.47,100.74l-.1-.13c-.45-.5-1.06-.56-2.23-.89s-5.56-1.44-7.07-1.83-2.34-.83-2.89-.67-.56.67-.61,1-.83.44-1.06.06.11-1,.95-4.11A63.09,63.09,0,0,1,132.24,85c1.22-2.72,3.62-3,6-2.39s2.78,4.5,2.45,7.28c.67-1.06,2.73-2.22,4.73-3.22a7,7,0,0,0,2.78-2c.45-.5,1-.94,1.11-.44s-.5,1.94-1.56,4.06-3.39,3.33-5.17,4a9.18,9.18,0,0,0-3.28,2.17c-.39.39-.61,1-.33,1.11a20,20,0,0,0,3.28.94c1.33.22,1.34.06,1.61-.39s.67-.78,1.06-.61.11,1.11-.11,1.89c-.16.57-.62,2.22-.9,3.36Zm157.87,0a6.63,6.63,0,0,1,2.23-4.7,8.7,8.7,0,0,1,8.85-1.75,8.13,8.13,0,0,1,5.25,6.21l0,.24H315A4.12,4.12,0,0,0,312.38,98a10,10,0,0,0-7.51,1,5.46,5.46,0,0,0-2,1.75ZM131,93.39s4.78,1.39,6.4,1.72a18.83,18.83,0,0,0,1.45-5.67,3.1,3.1,0,0,0-2.28-3.11,3,3,0,0,0-3.73,1.44,15.18,15.18,0,0,0-1.56,4.06,14.83,14.83,0,0,0-.28,1.56Zm12.13-10.56c-.56-.06-.44-.78.33-1.06a26.54,26.54,0,0,0,4.39-2.06c1.89-1.11,3.51-2.89,3.51-5s-1.22-2.33-2.56-2.06-4,3.33-5.67,4.72-4.51,2.11-6.4-.22-.11-5,1.5-7.17A20.39,20.39,0,0,1,141,67c.5-.61.11-1.06-.06-1.39s.06-.72.56-.72,2.06.11,3.28.06,1.28.06,1.22.61-1.22.94-2.67,1.72a17.61,17.61,0,0,0-4.67,3.83c-.56.94-1.28,2.61-.67,3.39s1.78.44,2.95-.67a51.56,51.56,0,0,1,5.62-4.72c1.45-.89,4.17-1.5,6,.33a5.59,5.59,0,0,1,1,6,11.41,11.41,0,0,1-3.5,3.95c-.67.44-.61.89-.33,1.11s.67.61.67.94-1.45.67-2.28.72-4.39.72-5,.67ZM149.32,55c-.44.5-.5.83-.17,1.17s5.67,4.5,6.79,5.39,2.39,2.28,2.95,2.28a1.94,1.94,0,0,0,1.34-.78c.28-.33.78-.5,1-.22s-.61,1.5-.95,1.94-2.34,3.11-2.61,3.56-.83.89-1.22.78.17-1.11.17-1.44.06-.67-1-1.39-6.34-4.95-7.57-5.83-1.61-1.22-2.28-.61-.95.83-1.22.61-.17-.67.17-1.17,1.84-2.28,2.39-3.11a17,17,0,0,1,1.84-2.45c.28-.17.5-.22.72.06s.11.72-.33,1.22Zm18.47-.11a6.75,6.75,0,0,0,2.34-5.06c.17-3-2.34-5.33-4.06-6.11a5.58,5.58,0,0,0-4.9-.28,8.17,8.17,0,0,0-3.12,2.44c-.28.17-.22.72.33,1.17s3.06,3.22,4.62,4.72a45.39,45.39,0,0,1,3.23,3.33c.28.39.78.5,1.56-.22Zm-15.08-4.67c-.44-.67.5-1,1.45-2s4.12-4.33,6-5.89a7.85,7.85,0,0,1,5.06-2.11,6.56,6.56,0,0,1,5.9,2.22c1.72,1.94,2.17,3.28,2.06,6.44s-1.84,4.39-3.28,5.89c-.68.71-3.78,3.61-4.51,4.39a5.9,5.9,0,0,1-1.72,1.5c-.39.11-.67.22-.61-.33s.45-.67.72-1.39-.44-1.22-1.34-2.06-4.78-5.06-5.62-5.89-1.67-1.56-2.06-1.56-.44.28-.83.61-.8.73-1.17.17Zm24.53-15.89s0,4.72.06,5.61.33,1,.56.89,4-2.22,4.34-2.5,0-.89-.44-1.11-4.51-2.89-4.51-2.89Zm-4.17-1.56c.72-.56,4.23-2.44,4.67-2.67s.89,0,1.61.44,10.74,7.78,11.29,8.22a2.94,2.94,0,0,0,1.72.67c.5,0,1.5-.22,1.56.11s.28.61-1,1.11-4.67,2.28-5.4,2.61-1.56.33-1.67-.06.22-.67.61-.94.83-.55,0-1.33a10,10,0,0,0-2.23-1.67c-.28-.06-.72.11-1.5.56s-4.73,2.78-5.06,3-.39.78-.45,1.28,0,2.83.28,3,.95-.17,1.34-.17.61.17.56.56-1.84,1.33-2.56,1.83-1.39,1.17-1.72.72-.06-.67.28-1.17.5-.89.33-2.28-.22-12.11-.39-12.72-.56-.67-1.06-.5a8.27,8.27,0,0,1-1.28.5c-.28,0-.67-.56.06-1.11ZM200.38,36c0,.28.74.37,1.43.23a5.07,5.07,0,0,0,3.13-1.89c1.34-1.52,1.8-3.27,1.38-6A7.11,7.11,0,0,0,203,23.12c-1.24-.6-4.52.32-5.07.51s-.69.41-.51,1.2,1.57,5.61,1.84,6.76,1.11,4.19,1.15,4.46Zm-3.73,3.17c-.83.18-.92,0-1.06-.32s.33-.46.69-1,0-1.2-.14-2.3-2.12-7.36-2.49-8.7-.46-1.52-.83-1.66-1.24.23-1.47-.09-.41-.83.51-1.2a42.34,42.34,0,0,1,4.52-1.43,29.49,29.49,0,0,1,7.69-1.24,6.5,6.5,0,0,1,5.48,3.4,8.92,8.92,0,0,1,.46,7.68c-1,2.67-3.23,3.91-6.13,4.79s-6.4,1.84-7.23,2Zm19.26-13.85c1-.32.46-.83.46-1.33a17.7,17.7,0,0,0-.74-2.25c-.23-.87.28-1,.74-.78s1.7,1,2.44,1.38,1.06,0,1.43-.51.78-1.47,1.24-2.16.78-.51.92-.14.55,1.52,1,2.39.6,1,1.11.92,1.75-.55,2.49-.74,1,.41.74.69-1.61,2.12-1.89,2.53a.67.67,0,0,0,.18,1c.32.14,2.21.74,2.81,1a.54.54,0,0,1,0,1c-.32.09-1.94.41-2.44.46s-.87.41-.78.78a19.88,19.88,0,0,0,.78,2.21c.42,1,0,1.24-.28,1.1s-1.29-.46-1.89-.74-1-.46-1.11-.18-.92,1.52-1.34,2.35-.78.55-1,0a23.84,23.84,0,0,0-1-2.25.86.86,0,0,0-1.2-.41c-.41.18-1.75.64-2.58,1.06s-1.15,0-.92-.41a16.11,16.11,0,0,1,1.11-2.16,1.2,1.2,0,0,0-.23-1.75c-.46-.28-2.07-.74-2.63-1.1a.59.59,0,0,1,0-1.06c.32-.14,1.52-.6,2.49-.92Zm20.23,6a9.76,9.76,0,0,0,2.95.32A5.48,5.48,0,0,0,243.32,29c.78-1.33,1.75-4,.28-5.61s-6.08-1.84-6.08-1.84-.6,4.56-.83,5.57-.55,4.28-.55,4.28Zm-3.23-11.78a54.31,54.31,0,0,1,6.36.69,18.52,18.52,0,0,1,7.42,2.16c2.81,1.66,2.72,6.67,0,8.7s-4.51,1.79-7,1.79-3.64,0-3.82.09-.14,1.06-.18,1.47.78.74,1.11,1.15-.23.55-.55.55a35.43,35.43,0,0,1-3.55-.41c-.88-.18-1.84-.14-2.21-.28s-.83-.78.23-1.1,1.15-.28,1.34-1.89,1-6.63,1.15-8.24.32-2.44.32-2.9-.32-.74-.78-.92-.83-.83.14-.87Zm29.39,9.71a6.12,6.12,0,0,0-4.42.28,8.17,8.17,0,0,0-3.64,4.19C253.18,36,253,40.6,257,41.52s6-1.67,7-3a8.09,8.09,0,0,0,1.29-5.8,4.19,4.19,0,0,0-3-3.36Zm1.89-.83c1.15.55,4.56,3.4,4.7,6.21s.14,6.17-3.82,8.33-8.62.51-10.46-.32a9.33,9.33,0,0,1-5.11-7.18c-.42-3.82,2.72-7.18,4.65-8.05a11.25,11.25,0,0,1,6.73-.41,12.17,12.17,0,0,1,3.32,1.43Zm11,6.72A49,49,0,0,1,280.36,39c.64.55.46,1.56-.55,1.1s-1.43-.55-2.12.28-4.33,5.8-5.16,6.81-2,2.21-1,3.22,2.4,2.35,4.1,2.53a11.29,11.29,0,0,0,4.61-.37c1.75-.51,2-.18,1.52.46s-3,1.89-3.87,2.48-1.43.69-2.44-.18-5.67-4.79-6.73-5.48-3.18-1.93-3.46-2.25a.59.59,0,0,1,.69-.87c.69.18,1.57.74,2.4-.23s2.44-3.22,4.05-5.34,2.86-3.5,2.86-4.09A1.44,1.44,0,0,0,274.6,36c-.32-.28-.32-1.1.55-.74Zm15.62,13c.23.18,3.13,3.73,3.59,4.33s.64,1,.28,1.33-.88-.09-1.2-.51-1.24-.18-1.75.18-4.42,4-5.62,5.06a20.9,20.9,0,0,0-2.35,2.16,1.58,1.58,0,0,0,0,1.56c.23.41.64,1.1.23,1.29s-.69,0-1.29-.64-3.55-3.77-3.92-4.14-.6-.83-.23-1.2.83.09,1.15.28A1.15,1.15,0,0,0,281,58c.55-.37,3.64-3.13,4.84-4.28s3.59-3.13,3.82-3.5a1,1,0,0,0,0-1.29c-.41-.51-.37-.78,0-1.1s1,.18,1.24.37Zm1.52,12.51c0-.37.55-.92,1-1.15s3-1.75,3.55-2,1.24-.64,1.61-.28,4.29,6.58,5.44,8.6,1.93,3.87,2.21,4.42a1.15,1.15,0,0,1-.18,1.43c-.37.32-3.73,2.35-4.51,2.71s-1.34.6-1.61.14.32-1.06,1.11-1.56a5.49,5.49,0,0,0,2.49-3,3.46,3.46,0,0,0-.41-3c-.28-.32-.46-.41-.88-.23s-3.46,2.07-4.61,2.76-5.34,3.08-5.57,3.45a1.64,1.64,0,0,0,.09,1.52c.28.55.46,1.06.14,1.29s-.78-.09-1-.55-2.17-3.5-3.09-4.88-.83-1.75-.6-1.89.46-.18,1.29.51,1.52.23,2.4-.32,7.23-4.28,8-4.74,1.2-.64,1.2-1a4.06,4.06,0,0,0-1.06-1.84,2.67,2.67,0,0,0-2.26-1.24c-1.06-.09-2.81.83-3.5,1.15s-1.15.09-1.15-.28Zm1.2,19.42c.18-.41.65-.09.92.32s.37,1.06,1.47.69,5.34-2.07,7.33-2.71,4-1.43,4.1-1.84-.14-1.29,0-1.61.55-.37.83,0,1.8,4.14,2.3,5.52,1.89,4.69,1.94,5.11.28,1.15-.18,1.56-2.16,1.7-2.53,2-1,.64-1.2.18a1.06,1.06,0,0,1,.23-1.2,5.67,5.67,0,0,0,1.66-2.35,5.92,5.92,0,0,0-.32-3.17,11.45,11.45,0,0,0-1.24-2.25s-3.5,1.2-4.15,1.47-.6.28-.6.78a2.66,2.66,0,0,0,.55,1.38,2.87,2.87,0,0,0,1.8.69c.51,0,.78-.32,1.06.23s-.42.6-1,.83-3.64,1.38-4.15,1.56-1.57,0-.74-.69,1-1.1,1-1.75-.14-1.7-.51-1.89-.78.09-1.7.41A24.37,24.37,0,0,0,297,84.82c-.23.23-.09.92.18,1.38a25.58,25.58,0,0,0,2.21,4.19,10.51,10.51,0,0,0,3,2.71c.69.37,1.52,1.43.69,1.47s-3.55-.32-3.87-.32-.37-.09-.6-.51-1-3.36-1.7-5-2.3-5.38-2.76-6.3-.87-1.89-.69-2.3Z"/><path class="cls-4" d="M236.17,192.2s-.64-6.81-.68-7.16a3.68,3.68,0,0,1,1.52-3.09c2-1.54,4.46-2.67,13.06-3.22,4.41-.28,8.8-.2,13.2-.19l.09-5.8a10.39,10.39,0,0,1,.29-2c.93-3.21,6.25-2,6.25.19,0,.39-.19,4-.19,4a6.9,6.9,0,0,1,2.24,1.14,1.34,1.34,0,0,1,.49,1s-.33,3.24-.7,5.27c-.24,1.29-.38,3.7-1.28,4.72-2.1,2.36-15.26,1.66-18.61,1.66-1,0-5.44.55-6.36,1.2a15.72,15.72,0,0,0-.92,5.8c0,2.45-.36,4.14-2.4,5.06s-6.74,1.66-10.87,2.12a141.89,141.89,0,0,1-16.68.18,65.65,65.65,0,0,1-13.36-1.93c-2.26-.72-2.58-2.41-2.58-4.42,0-.88,0-3.66-.06-5.73-1-1.42-6.39-1.81-9.71-2s-9.61.09-14.4-.28c-2.06-.16-4.48-.69-5-3-.09-.38-.13-.73-.17-1-.19-1.11-.56-7.49-.56-7.49-.33-1.31.83-2.24,4.32-2.32h.37s-.17-3.14-.07-3.49a2.55,2.55,0,0,1,2-1.65c2.57-.51,5,1.65,4.33,3.54-.06.19-.21,5.17-.21,5.17,3.32-.11,7.35-.23,12-.06,7.17.27,14.76,2.54,15.38,5.73a30.24,30.24,0,0,1,.12,7.77A129.78,129.78,0,0,0,223.73,193c3.42-.06,8.67-.4,12.43-.79Zm7.81-1.61a8.67,8.67,0,0,1-3.47,1.74c-2.17.56-11.61,1.39-16.76,1.39-7.16,0-21.14-.08-24.56-3.42,0,0,.22,5.36.22,6.37,0,1.46-.11,2.47,1.93,3.13a68,68,0,0,0,13.36,1.84,137.42,137.42,0,0,0,16.31-.09c4.16-.46,8.94-.92,10.72-1.72s1.53-1.38,1.53-3.71a26,26,0,0,1,.7-5.53Zm20-12h2.17c1.24,0,4.82-.1,5.48-1.35s-5.72-2.41-7.17-3.34a2.91,2.91,0,0,1-.4-.3l-.08,5ZM206.39,187c-1.27,1.08-4.83,1.3-6,1.59-.28.07-.94.19-.77.63.44,1.15,3.15,2,6.6,2.54,0-.46.1-1.43.14-2.56,0-.76,0-1.49,0-2.19Zm-27.62-8.54-.07-3.91c-1,.69-2.66,1.19-5.27,1.25-3.88.09-4.07.91-3.9,1.34.27.67,1.12,1.42,5,1.42,1.23,0,2.64,0,4.24-.1ZM177,172.65v1.61c3.69-1.33,1.19-4.36-1.49-3.82-2,.4-2.33,2.69,1.06,2.13l.43.09Zm-2.93.41.06,1.75a13,13,0,0,0,2.13-.32v-1.14l-.54,0a3.34,3.34,0,0,1-1.64-.32Zm91.6.59.15-1.94a.59.59,0,0,1,.65-.1c.76.45,2.67.65,2.67-.7s-4.08-2.49-4.81,0c-.51,1.74.18,2.29,1.34,2.73Zm.86-1.2,0,1.48c.74.24,1.61.48,2.48.76l.07-2.28a3.2,3.2,0,0,1-2.5,0Zm-29.45,14.38.06,5.27a27.37,27.37,0,0,0,3.15-.48c2.14-.56,3.8-1.79,3.87-2.71.06-.75-.55-1.72-5.21-1.82a6.28,6.28,0,0,1-1.87-.27Zm-40-5.5a1.43,1.43,0,0,1,.55-.23,4.2,4.2,0,0,1,1.24.39,1.05,1.05,0,0,1,.46.76,8.4,8.4,0,0,1,.16,1.1A22.56,22.56,0,0,0,200,187a4.75,4.75,0,0,1,.21.61c1.56-.28,5.64-.75,5.84-1.85a3.46,3.46,0,0,0,.09-1c-.49-2.51-6.91-5.24-14.3-5.52s-13.44.09-17.31.09c-2.72,0-4.2-.36-5-1,.11,1.88.35,5.45.48,6.26a3.68,3.68,0,0,0,.64,1.95c.51.62,1.56,1.25,3.91,1.43,4.79.37,11.14-.28,14.37-.09,2.71.15,7.69.71,9.67,2.09,0,0-.06-.6-.09-.67a1.1,1.1,0,0,1,0-.82.55.55,0,0,1-.2-.12c-.18-.18.14-.69.18-.9s.09-1.43-.18-1.5-1-.37-1.2,0a4.11,4.11,0,0,0-.25,1.43c0,.46.14.62,0,.69a1.9,1.9,0,0,1-1-.18c-.3-.16-.07-.51.07-.69a3,3,0,0,0,.44-1c.12-.48.88-4.16.83-4.39s-.12-.32-.14-.44Zm.76,1.68a5,5,0,0,0-.35,1.68c0,.16.42.18.55.21s.11-.81.09-1.1a2.57,2.57,0,0,0-.3-.78ZM242,186.54a26.26,26.26,0,0,0,.28-3.63c-.07-.25-.41-.55-.25-.76a1.12,1.12,0,0,1,.9-.3c.41,0,.83.07,1,.53a21.51,21.51,0,0,0,1.08,2.28c.14.18.37.28.48.14a15,15,0,0,0,.23-2.48c0-.39-.28-.35-.07-.6s.9-.39,1-.21a8,8,0,0,1-.07,1.45c0,.3-.14,4.19-.14,4.35a.44.44,0,0,1-.28.46c-.25.12-.71.21-.92,0a7.36,7.36,0,0,1-.78-1.56c-.28-.62-.85-1.66-1.08-1.56s-.18.94-.23,1.29a3.12,3.12,0,0,0,0,.88c1.28.45,1.81,1.16,1.76,2.09,1.61-.76,6.16-1,6.91-1,3,0,16.16.41,18-1.62.87-1,1.49-5.54,1.78-8-2.17,1.46-7.69,1.29-9.52,1.27-3.33,0-7.89-.09-12.16.18-8.54.55-9.85,1.44-11.7,2.85s-1.93,3.62.83,3.68a18.61,18.61,0,0,1,3,.27Zm-51.2-6.07c.14,0,.92-.16,1,0s.16,0,.09.94,0,4.23,0,4.46a1.54,1.54,0,0,0,.14.69c.09.14-.16.39-.39.39l-.76,0c-.18,0-.48.07-.46-.16s.09-.58.12-1,0-4.1,0-4.49a1.26,1.26,0,0,0,0-.64c0-.18.23-.23.23-.23Zm-4.77-.14a6.83,6.83,0,0,1,1.22,0c.14.07.35.18.37.39s.81,1.82.9,2,.18.48.3-.07a6.81,6.81,0,0,0,.07-1.45c0-.25,0-.9.09-.9s.58.09.67.25,0,.44-.12.78,0,4,0,4.3a2.26,2.26,0,0,1-.18,1.2.78.78,0,0,1-.64-.12c-.07-.12-1.06-2.19-1.15-2.37s-.55-.35-.62.07a9.65,9.65,0,0,0,0,1.61c0,.09.37.25.32.41s-.41.25-.69.23-.76.11-.46-.46a5.59,5.59,0,0,0,.14-2.07c0-.28.07-2.76,0-3a1.89,1.89,0,0,0-.23-.55c-.14-.25,0-.35,0-.35Zm-4.1,0c.14-.09.92.07,1.06,0s.65,0,.37.41a1.83,1.83,0,0,0-.3,1.22c0,.48,0,.8.23.78s.46.14.55,0a12.09,12.09,0,0,0,.07-1.82c0-.16-.25-.3-.07-.46a2.74,2.74,0,0,1,1.2-.14c.35,0,.58.39.37.6s-.21.74-.21,1l-.07,4.1c0,.14.12.12.18.44s-.53.25-.62.23-.53.09-.71.07-.35-.07-.16-.25.14-.51.18-.76,0-1.63,0-1.75-.48-.16-.69-.14-.23.21-.3.41a14.58,14.58,0,0,0,0,1.73c0,.12.35.28.37.44s-.07.3-.32.3a10.45,10.45,0,0,0-1.17,0c-.3,0-.32-.28-.12-.51s.32-.35.3-.62,0-4.76,0-4.9-.21-.3-.07-.39Zm-2,1.13s-.35.16-.35.39-.16,2-.09,3.27.39,1.15.69,1,.32-.64.44-.83.3-.16.37,0,.07,1,0,1a1,1,0,0,0-.62.34,1.37,1.37,0,0,1-1.29.16,1.66,1.66,0,0,1-.81-1.5,11.85,11.85,0,0,1,0-3c.23-1.08.48-1.38.9-1.59s1,0,1.24-.09.41.6.41.85,0,.85-.18.87-.18-.48-.3-.67-.12-.28-.37-.28Zm-5.07-.58c.09,0,1.89-.12,2.07-.12s.39,0,.39.41.12.83,0,.85-.18-.41-.55-.44-.58,0-.58.32-.12.6,0,.76.16.25.37.23.37-.09.39.07.21,1.17.09,1.29-.51-.07-.74,0-.14,1.22-.09,1.68a.41.41,0,0,0,.69.28c.14-.18.09-.53.32-.62s.35.71.32.94.07.3-.48.28-1.91,0-2.14-.07,0-.35,0-.51a5.25,5.25,0,0,0,.14-1.26c0-.62-.12-2.85-.12-3.08s-.3-.69-.3-.81.25-.23.25-.23Zm-3.41.39a1,1,0,0,1,.14-.41c.18-.25.44-.11,1-.11s.9.14,1.41.14.25.48.25.71,0,.64-.23.51-.3-.39-.55-.37-.32.92-.35,1.54.07,2.53.07,2.53.55.53.39.64a4.11,4.11,0,0,1-1.5,0,.33.33,0,0,1-.23-.55,1.38,1.38,0,0,0,.32-.6c0-.23,0-3.08,0-3.24a.29.29,0,0,0-.3-.3c-.18,0-.44.25-.53.21s0-.48,0-.67Zm22.74.18c-.25,0-.25.64-.3,1s-.07,2.69-.09,3.47.74.87,1,.6.44-1,.6-1.13.28.07.3.44a1.47,1.47,0,0,1-.12.9,3.26,3.26,0,0,1-.92.83,1.68,1.68,0,0,1-1.59-.39c-.67-.55-.74-2.14-.76-2.55a8.69,8.69,0,0,1,.41-2.85,1.75,1.75,0,0,1,1.38-1.15,5.39,5.39,0,0,1,1.31.51c.21.09.25.46.21,1.06s0,1.2-.35,1.1-.44-1-.46-1.31a.56.56,0,0,0-.6-.51Zm67.56-.64a2.14,2.14,0,0,1,1.08,0c.23.07.44.37.69.87s.51,1.34.71,1.36.16-.78.16-1.13a1.57,1.57,0,0,0-.37-.92c-.18-.23.53-.48.76-.53a.87.87,0,0,1,.69.21c.12.14,0,.32-.18.58a4.42,4.42,0,0,0-.09,1.61,27.56,27.56,0,0,0,0,3.4c.14.53-.09.58-.48.58a1.08,1.08,0,0,1-.76-.18c-.09-.12-.62-1.38-.81-1.86s-.44-.3-.44,0,0,1.43,0,1.86-.21.46-.44.44-.78-.14-.76-.3.18-.58.23-.74.21-4.49.18-4.74-.28-.37-.16-.48Zm-2.88.57c-.32.09-.44.6-.46,1s-.07,1.89,0,2.58.16,1.08.48,1.15a.62.62,0,0,0,.69-.44,18.6,18.6,0,0,0,0-3.17c-.09-1.15-.42-1.2-.74-1.1Zm.23-.92a1.73,1.73,0,0,1,1.43,1.13,7.17,7.17,0,0,1,.48,2.9c-.07.69-.48,2.44-1.94,2.44s-2.16-1-2.14-3c0-2.19.88-3.06,1.34-3.31a1.35,1.35,0,0,1,.83-.18Zm-4.22.39a4.19,4.19,0,0,1,1.24-.18.92.92,0,0,1,.71.21c.14.14-.25.28-.28.41s0,4.55.14,5.2,0,.51-.3.51a3,3,0,0,1-1.13-.16c-.39-.16-.16-.51,0-.67s0-1.56,0-2.07a18.08,18.08,0,0,0-.21-2.51c0-.21-.35-.62-.25-.74Zm-3.48-.23,1.34,0a9.81,9.81,0,0,1,1.94.18c.18.09-.14.64-.32.74s-.41-.28-.44-.09,0,4.39,0,4.65.3.92,0,1a2.35,2.35,0,0,1-1.13,0c-.3-.07-.46-.12-.44-.35a5,5,0,0,1,.16-.64c0-.21-.09-4.44-.09-4.62s-.48-.09-.6,0-.64.18-.74.09.32-.94.32-.94Zm-2.67,2.28c-.18.18-.12.46-.23,1s-.09.74,0,.76a3.59,3.59,0,0,0,.85,0c.16,0,.25-.3.14-.62s-.48-1-.53-1.1-.28,0-.28,0Zm-.67-1.73a4.33,4.33,0,0,1,1,0c.35,0,.65-.09.9.21A17.09,17.09,0,0,1,251,184c.21.67.58,2.16.69,2.35s.25.48.14.6a2.25,2.25,0,0,1-.94.25c-.39,0-.48,0-.62-.18s0-.53,0-.81-.09-.74-.42-.69-1.24,0-1.41,0-.16.44-.18.8.46.69.3.85a2,2,0,0,1-1,.32c-.3,0-.44,0-.51-.28s.09-.3.21-.48a14.1,14.1,0,0,0,.53-2,29.31,29.31,0,0,0,.37-3.13c0-.23-.21-.46,0-.55Zm18.38-.58a.52.52,0,0,1,.46-.21l1,0a.31.31,0,0,1,.3.37c0,.18-.18.25-.23.41S268,183.42,268,184a11.63,11.63,0,0,0,.12,1.38c0,.21.3.8,0,.9a6.76,6.76,0,0,1-1.45.16c-.23,0-.21-.07-.18-.41s.28-.58.28-.83,0-2,.07-2.78a4,4,0,0,0-.14-1.36c-.07-.21-.16-.37-.09-.48Z"/></svg>